<?xml version="1.0" encoding="UTF-8" standalone="no"?>
<svg width="137px" height="70px" viewBox="0 0 137 70" version="1.1" xmlns="http://www.w3.org/2000/svg" xmlns:xlink="http://www.w3.org/1999/xlink">
    <g id="Page-1" stroke="none" stroke-width="1" fill="none" fill-rule="evenodd">
        <g  fill="#FFFFFF">
            <g id="Group" transform="translate(87.000000, 0.000000)">
                <path d="M16.1,44 C16.1,44 16.1,43.9 16,43.9 L15.9,43.8 C15.9,43.8 15.7,43.9 15.5,44.1 C15.3,44.4 15.7,45 15.7,45 C15.4,44.9 15.2,44.6 15.1,44.4 C15.1,44.1 15.3,43.6 15.3,43.6 C15.4,43.4 15.5,43 15.5,42.7 C15.6,42.4 15.7,42 15.8,41.6 C16,40.8 16.4,39.9 16.6,39.1 C16.7,38.5 16.8,38 16.9,37.6 C17,36.7 17.1,35.1 17.1,34.1 L17.1,33.6 C17.1,33.5 17.2,32 17.9,31.4 C18.4,31 18.8,31.1 19.3,30.8 C19.3,30.8 18.6,30.5 17.6,30.7 C17.6,30.7 16,31.9 15.3,37.5 C15.3,37.5 14.4,42.6 14.4,43.2 C14.4,43.5 14.6,44.8 14.6,44.8 C14.6,44.8 15.4,45.1 15.6,45.1 C15.7,45.1 15.8,45.1 16.1,45 C16.3,44.9 16.5,44.9 16.9,45 C16,44.5 16.2,44.2 16.1,44" id="Shape"></path>
                <path d="M22.7,25.5 L23.6,25.5 C23.9,25.5 24.1,25.4 24,25.2 C24,25 23.6,25 23.6,25 L22.9,25.1 C23,25.2 23,25.5 22.7,25.5" id="Shape"></path>
                <path d="M31.7,30.5 C31.7,30.4 31.6,29.3 31.6,28.4 L31.6,27.4 C31.6,27.1 31.3,27.3 31.3,27.4 C31.2,27.6 31.1,27.6 31.1,27.6 C31.1,27.6 31,27.6 31,27.8 C31,27.6 30.9,27.6 30.9,27.6 C30.7,27.4 30.6,28.1 30.6,28.1 L30.6,28.6 L30.6,28.8 C30.6,29.1 30.6,29.7 30.8,30.2 C30.8,30.3 30.9,30.3 30.9,30.3 C30.9,30.3 30.8,30.8 31,31 C31.3,31.4 31.4,31.3 31.4,31.3 C31.8,30.9 31.7,30.7 31.7,30.5" id="Shape"></path>
                <path d="M21.2,29 C21.3,28.9 21.4,28.8 21.6,28.8 C21.9,28.8 22.2,29.1 22.1,29.4 C22.1,29.6 22,29.7 21.9,29.8 L21.8,29.8 L21.2,29.8 L21.2,29.8 C21.1,29.7 21,29.5 21,29.4 C21,29.3 21,29.1 21.2,29 M20.5,29.4 C20.5,29.6 20.6,29.9 20.7,30.1 L20.1,30.7 C20,30.8 19.8,30.9 19.8,30.9 C19.8,30.9 19.6,32.3 20.1,32.1 C20.1,32.1 20.2,31.8 20.5,31.8 C21,31.9 21.1,31.7 21.3,31.6 C21.4,31.5 21.8,31.6 21.8,31.6 C22.1,31.5 22.4,31.7 22.5,31.4 L22.5,31.3 C22.3,31.1 21.6,31.2 21.6,31.2 C21.6,31.2 21.7,31.2 21.8,31.1 C21.8,31.1 21.9,31.1 21.9,31 C21.9,31 22,31 22.3,31.1 C22.5,31.2 22.6,31.1 22.6,31 C22.6,30.9 22.5,30.8 22.5,30.8 C22.5,30.8 22.2,30.7 22,30.6 L21.4,30.6 C21.4,30.6 21.4,30.6 21.7,30.5 C21.8,30.5 21.9,30.5 21.9,30.4 C21.9,30.4 22.1,30.4 22.3,30.5 C22.5,30.6 22.5,30.6 22.6,30.6 L22.7,30.5 C22.7,30.5 22.7,30.5 22.7,30.4 C22.7,30.3 22.6,30.2 22.6,30.2 C22.6,30.2 22.1,30 22,30 C21.9,30 21.4,30.1 21.4,30.1 C21.5,30 21.6,30 21.8,30 C22,30 22,29.9 22,29.9 C22,29.9 22,30 22.4,30.1 C22.5,30.1 22.8,30.3 22.7,30 L22.6,29.9 C22.7,29.7 22.8,29.5 22.8,29.3 C22.8,28.7 22.3,28.2 21.7,28.2 L21.5,28.2 L21.5,28.2 C21.1,28.8 20.7,29.2 20.5,29.4" id="Shape"></path>
                <path d="M21.2,44.2 C20.7,43.8 19.2,44.5 19.2,44.5 C19.2,44.5 18.9,45.1 19.5,45.1 C19.8,45.1 20.3,45.1 20.7,45 C21,44.9 21.5,45.1 21.9,45.1 C22.5,44.9 21.2,44.2 21.2,44.2" id="Shape"></path>
                <path d="M12.7,41 C12.6,41.7 12.3,42.9 12.3,43.3 C12.3,43.7 12.2,44.5 12.2,44.5 C12.4,44.6 12.6,44.7 12.6,44.7 L13.4,38.1 C13.5,38.2 12.9,40.3 12.7,41" id="Shape"></path>
                <path d="M23.1,25.1 L23.8,25.1 C24.3,25.1 24.4,24.9 24.2,24.7 C24.1,24.6 23.4,24.6 23.4,24.6 L23,24.8 C22.9,24.8 23.2,24.8 23.1,25.1" id="Shape"></path>
                <path d="M47.3,42.4 L45.4,42.4 L45.4,37.3 L45.4,37.2 C45.4,36.7 45.9,36.3 46.4,36.3 C46.9,36.3 47.3,36.7 47.4,37.2 C47.4,37.2 47.4,37.2 47.4,37.3 L47.4,42.4 L47.3,42.4 Z M43.9,35.7 C43.1,35.7 42.4,35 42.4,34.2 C42.4,33.4 43.1,32.7 43.9,32.7 C44.7,32.7 45.4,33.4 45.4,34.2 C45.4,35.1 44.8,35.7 43.9,35.7 L43.9,35.7 Z M42.5,42.4 L40.6,42.4 L40.6,37.3 L40.6,37.2 C40.6,36.7 41.1,36.3 41.6,36.3 C42.1,36.3 42.5,36.7 42.6,37.2 C42.6,37.2 42.6,37.2 42.6,37.3 L42.6,42.4 L42.5,42.4 Z M43,20.3 L43,20.3 C43,20.1 43.1,19.8 43.3,19.7 C43.5,19.5 43.7,19.4 44,19.4 C44.5,19.4 44.9,19.8 45,20.3 L45,20.5 L45,20.5 L45,25.8 L43,25.8 L43,20.3 L43,20.3 Z M9.2,42.4 L7.3,42.4 L7.3,37.3 L7.3,37.2 C7.3,36.7 7.8,36.3 8.3,36.3 C8.8,36.3 9.2,36.7 9.3,37.2 C9.3,37.2 9.3,37.2 9.3,37.3 L9.3,42.4 L9.2,42.4 Z M5.8,35.7 C5,35.7 4.3,35 4.3,34.2 C4.3,33.4 5,32.7 5.8,32.7 C6.6,32.7 7.3,33.4 7.3,34.2 C7.3,35.1 6.6,35.7 5.8,35.7 L5.8,35.7 Z M4.4,42.4 L2.5,42.4 L2.5,37.3 L2.5,37.2 C2.5,36.7 3,36.3 3.5,36.3 C4,36.3 4.4,36.7 4.5,37.2 C4.5,37.2 4.5,37.2 4.5,37.3 L4.5,42.4 L4.4,42.4 Z M4.9,20.5 L4.9,20.5 L4.9,20.3 C4.9,19.8 5.4,19.4 5.9,19.4 C6.2,19.4 6.4,19.5 6.6,19.7 C6.8,19.9 6.9,20.1 6.9,20.3 L6.9,20.3 L6.9,25.8 L5,25.8 L5,20.5 L4.9,20.5 Z M48,31.2 L47.8,17.3 L48.8,17.3 L44.6,9 C45,8.8 45.3,8.4 45.3,7.8 C45.3,7.1 44.7,6.5 44,6.5 C43.3,6.5 42.7,7.1 42.7,7.8 C42.7,8.3 43,8.7 43.4,9 L39.2,17.3 L40.2,17.3 L40.1,21.4 L39.8,20.4 C39,17.1 36,14.7 32.5,14.7 L32.3,14.7 C31.7,11.9 29.6,9.7 26.9,9 L26.9,6.3 L27.3,6.3 L25.3,2.4 C25.6,2.2 25.9,1.9 25.9,1.5 C25.9,0.9 25.4,0.5 24.9,0.5 C24.3,0.5 23.9,1 23.9,1.5 C23.9,1.9 24.1,2.2 24.5,2.4 L22.5,6.3 L22.9,6.3 L22.9,9 C20.2,9.8 18.1,12 17.5,14.7 L17.3,14.7 C13.8,14.7 10.8,17.1 10,20.4 L9.7,21.4 L9.6,17.3 L10.6,17.3 L6.4,9 C6.8,8.8 7.1,8.4 7.1,7.8 C7.1,7.1 6.5,6.5 5.8,6.5 C5.1,6.5 4.5,7.1 4.5,7.8 C4.5,8.3 4.8,8.7 5.2,9 L1,17.3 L2,17.3 L1.8,31.2 L0.5,31.2 L0.2,45.1 L11.4,45.1 L11.2,31.2 L11.2,24.9 C11.2,23.9 11.5,22.4 11.7,21.4 C11.8,21.1 11.9,20.7 12,20.4 C12.8,18.2 14.8,16.7 17.3,16.7 C18,16.7 18.7,16.8 19.3,17.1 C19.3,16.8 19.2,16.6 19.2,16.3 C19.2,13.2 21.7,10.7 24.8,10.7 C27.9,10.7 30.4,13.2 30.4,16.3 C30.4,16.6 30.4,16.8 30.3,17.1 C30.9,16.9 31.6,16.7 32.3,16.7 C34.7,16.7 36.8,18.2 37.6,20.4 C37.7,20.7 37.8,21 37.9,21.4 C38.2,22.4 38.4,23.9 38.4,24.9 L38.4,31.2 L38.2,45.1 L49.4,45.1 L49.1,31.2 L48,31.2 L48,31.2 Z" id="Shape"></path>
                <path d="M26.9,27.7 C27,27.7 27.1,27.7 27.2,27.6 C27.4,27.5 27.7,27.3 27.8,27 C27.8,26.7 27.7,26.5 27.5,26.5 L27.2,26.5 C27.1,26.5 26.9,26.7 26.9,26.7 C27,26.6 26.9,26.5 26.9,26.5 C27.1,26.6 27.8,26.3 27.6,25.5 C27.6,25.3 27.5,25.3 27.5,25.2 L27.5,24.8 C27.5,24.7 27.6,24.4 27.5,24.2 C27.5,24.1 27.3,24.1 27.2,24.1 C26.9,24.2 26.9,24.7 26.9,24.8 C26.9,24.8 26.9,24.8 26.8,24.8 C26.7,24.8 26.7,24.7 26.7,24.7 C26.7,24.7 26.5,24.5 26.5,24.4 C26.4,24.3 26,23.9 25.9,23.7 C25.7,23.5 25.6,23.7 25.6,23.8 C25.6,23.9 25.9,24.4 25.9,24.4 C26.2,24.8 26.3,24.8 26.3,24.8 L26.2,24.9 C26.2,24.9 26.2,24.9 25.8,24.4 C25.8,24.4 25.4,23.8 25.2,23.7 C25.1,23.5 24.9,23.7 24.9,23.8 C24.8,24 25.4,24.7 25.4,24.7 C25.7,25.1 25.9,25.2 25.9,25.2 L25.8,25.3 C25.9,25.3 25.3,24.7 25.3,24.7 C25.1,24.5 24.9,24.2 24.8,24.1 C24.6,24 24.5,24.3 24.6,24.4 C24.6,24.5 24.7,24.6 24.9,24.8 C25,25 25.5,25.4 25.5,25.4 L25.5,25.4 C25.4,25.2 25,24.9 24.7,24.7 C24.4,24.5 24.4,24.8 24.4,24.9 C24.5,25 24.7,25.4 24.8,25.4 C24.9,25.5 25.4,25.8 25.4,25.9 C25.5,26 25.6,26.2 25.6,26.2 C25.7,26.3 25.8,26.5 26,26.6 C26,26.6 26.2,26.7 26.4,26.7 C26.4,27.2 26.5,27.6 26.9,27.7" id="Shape"></path>
                <path d="M33.8,35.3 C33.8,35.3 33.2,35.7 32.3,35.2 C31.4,34.7 31.1,34.4 31,34.4 C31,34.4 31.9,34.8 32.5,34.7 C33.1,34.6 33.3,34.5 33.9,34.5 C33.9,34.5 33,34.8 33.1,35.2 C33,35.4 33.4,35.4 33.8,35.3 L33.8,35.3 Z M27.5,33 L27.8,33 C27.8,33 28.2,32.8 28.3,32.8 C28.5,32.7 28.5,32.8 28.5,32.6 C28.5,32.9 28.7,33 29,33 C29.3,33 29.5,32.8 29.8,32.8 L30.1,32.8 C30.1,32.9 30.2,33 30.2,33 C30.5,33.2 30.6,32.9 30.5,32.7 C30.5,32.7 30.6,32.9 30.9,32.9 C31.2,32.9 31.8,32.7 32.1,32.6 C32.4,32.5 33.1,32.2 33.2,32 C33.3,31.8 32.9,31.3 32.8,30.9 C32.7,30.8 32.7,30.7 32.7,30.5 C32.8,30.7 32.9,31 33.1,31.3 C33.1,31.4 33.2,31.4 33.2,31.5 C33.3,31.7 33.5,32 33.6,32.2 C33.7,32.5 33.9,32.7 34,32.8 C34.3,33.1 34.6,33.3 34.7,33.6 C34.4,33.2 34.1,31.8 34,31.3 C33.8,30.8 33.3,29.8 33.2,29.6 C33.1,29.4 32.8,28.5 32.8,28.3 L32.8,27.5 C32.8,27.5 33.4,29.2 33.4,29.5 C33.5,29.7 34.1,31.6 34.2,31.9 C34.3,32.2 35.1,34.3 35.3,34.5 C35.4,34.5 35.5,34.7 35.7,34.9 C35.9,35.2 36.1,35.4 36.4,35.8 C36.2,35.5 35.9,35.4 35.9,35.4 C35.7,35.2 35.7,35.1 35.7,35 C35.7,34.7 35.4,34.5 35.4,34.5 C35.3,34.4 35.2,34.3 35.1,34.1 C35,34 34.9,33.8 34.8,33.6 C34.8,33.6 34.2,33.1 33.9,32.9 C33.5,32.7 33.3,32.6 33,32.7 C32.1,33.1 31.2,33.1 31.2,33.1 C30.4,33 30.9,33.3 30.9,33.3 C31.3,33.4 31.3,33.5 32.3,33.6 C33.3,33.6 33.4,33.7 33.9,33.8 C34.4,33.9 34.7,34.2 34.7,34.2 C34.2,34 33.8,34 33.1,34.1 C32,34.3 30.9,33.4 30.9,33.4 C30.2,33.1 30.3,33.5 30.4,33.6 C30.5,33.8 30.7,33.8 30.7,33.8 C30.2,33.6 30.4,34 30.4,34 C30.7,34.2 30.9,34.4 30.9,34.4 C32.2,35.6 33.2,35.8 33.7,35.7 C33.8,35.7 34,35.6 34,35.6 C33.8,35.7 33.7,35.8 33.6,35.8 C33.3,36 32.6,36.2 32.1,36.2 C31.4,36.3 30.7,36.1 30.5,36 C30.4,35.9 30.3,35.5 30.6,35.4 C31,35.3 31.1,35.1 31.1,34.9 C31.1,34.7 30.7,34.3 30.7,34.3 C30.1,34 29.9,34.2 29.9,34.2 L30.1,33 L30,33 L29.6,33 L29.3,33 L29,33 C29,33 29,33 28.9,33 L28.4,33 L28.4,32.8 L28.4,32.8 C28.3,32.8 28.2,32.7 28.2,32.7 L28,32.7 C27.9,32.7 27.7,32.8 27.7,32.8 L27.5,33 L27.5,33 Z M32.3,29.2 C32.4,29.4 32.4,29.9 32.5,30.3 C32.4,30.4 32.2,30.6 32,30.7 C32.5,30.4 32.3,29.5 32.3,29.2 L32.3,29.2 Z M32.1,26.5 C32.7,26.6 32.9,26.6 33.1,26.5 C33,26.7 32.6,26.7 32.6,26.7 C32.7,26.7 32.9,26.9 33,27.1 C33.2,27.4 32.7,27.2 32.7,27.2 C32.7,26.8 32.1,26.5 32.1,26.5 L32.1,26.5 Z M36.2,38.7 C36.1,37.8 36.1,37.6 35.8,37.2 C35.8,37.2 36.4,37.8 36.5,38.9 C36.5,40 36.4,42.9 36.4,43.7 C36.4,43.7 35.9,44.3 35.6,43.3 C35.6,43.3 35.9,43.5 36.1,42.7 C36,41.8 36.3,39.6 36.2,38.7 L36.2,38.7 Z M33.8,43 C33.9,42.8 33.9,39.9 33.9,39.9 C34,41 34.4,43.4 34.4,43.4 C33.9,43.4 33.7,43.2 33.8,43 L33.8,43 Z M33.3,37.9 C33.3,37.7 33.3,37.6 33.2,37.6 C33.2,37.6 32.9,37.9 32.7,38.4 C32.5,38.9 32.4,39.3 31.9,40.5 C31.1,42.5 30.5,42.9 30.5,42.9 C30.6,42.5 30.3,41.9 30.3,41.9 C31,41.1 33.1,37.2 33.5,36.8 C33.8,36.4 33.9,36.6 33.9,36.6 C33.5,36.8 33.4,37.4 33.3,37.9 L33.3,37.9 Z M30.5,38.7 C30.4,38.1 29.6,36.8 30.1,36.7 C30.3,36.7 31.4,37.6 31.9,37.6 C32.4,37.6 32.5,37.4 32.6,37.2 C33,36.5 33.2,36.4 33.2,36.4 C33.1,36.6 33,36.8 32.7,37.2 C32.5,37.5 32.3,37.9 32.1,38.4 C31.5,39.6 30.3,41.3 30.3,41.3 C30.6,40.7 30.6,39.1 30.5,38.7 L30.5,38.7 Z M26,42.7 C25.9,43 25.9,43.4 25.9,43.5 C25.7,44.9 26,45.4 26,45.4 C26,45.4 26.5,45 26.7,43.6 C26.8,42.9 27.3,40.3 27.7,38 C27.6,36.9 27.5,35.8 27.8,35.6 C28,35.4 28.3,35.2 28.2,35.3 C28.4,34.4 28.5,33.8 28.5,33.8 L29.8,34.3 C29.3,34.5 28.9,34.8 28.5,35.1 C27.7,36.3 28,37.8 28.1,38.4 C28.2,39 27.9,39.9 27.9,39.9 C28,41.4 28.3,42.2 28.3,42.2 C28.3,42.2 28.6,43 29.2,43.2 C29.2,43.2 28.6,43.1 28.5,42.9 C28.5,42.9 28.3,43 28.3,43.2 C28.3,43.2 27.7,43.6 27.9,43.9 C27.7,44.1 27.7,44.1 27.4,44.3 C27.2,44.5 27.1,44.5 26.7,44.7 C26.6,44.8 26.4,44.9 26.3,45 C26.3,45.1 26.3,45.1 26.4,45.1 L26.6,44.9 C26.4,45 26.4,45.1 26.5,45.1 L26.5,45.1 C26.5,45.1 26.6,45.1 26.7,45 C26.7,44.9 26.8,44.9 26.9,44.8 C26.9,44.8 26.6,44.9 26.7,45.1 C26.9,45.2 27,44.9 27,44.9 C27.1,44.8 27.2,44.8 27.4,44.7 C27,44.8 27,44.9 27.1,45.1 C27.2,45.2 27.4,45.2 27.7,45.1 C28.1,45.1 28.6,44.8 28.9,44.8 C29,44.8 29,44.8 29.2,44.9 C29.3,44.9 29.7,44.9 29.7,44.8 C29.9,44.4 29.2,43.9 29,43.8 C28.9,43.7 28.6,43.5 28.6,43.5 C28.6,43.5 29,43.7 29.4,43.9 C29.7,44 29.8,44 29.9,44 C30.4,44.1 30.6,43.8 31.1,43.8 C32.2,42.8 32.4,42.3 32.8,40.7 C32.9,40.1 33.2,39.1 33.3,38.4 L33.3,40 C33.3,40.6 33.4,42.6 33.3,42.9 C33.3,43.2 33.1,43.3 33.1,43.3 C33.1,43.3 33.4,44 34,44.1 C34.2,44.1 34.3,44.1 34.5,44 C34.5,44 35.1,44.5 36.1,44.2 C36.2,44.1 36.4,44.1 36.6,44 C36.7,43.9 36.7,38.9 36.7,38.2 C36.7,37.7 36.6,37.6 36.5,37.4 C36.3,37 36,36.7 36,36.7 C36,36.7 35.8,36.6 35.8,36.3 C35.8,35.8 35.9,35.8 36.1,36.1 C36.4,36.5 36.4,36.9 36.5,37.5 C36.5,37.5 36.7,37.7 36.9,38.1 C37,38.3 37,38.7 37,39 L37,43.9 C37.1,43.7 37.2,43.6 37.2,43.6 C37.2,43.6 37.2,38.1 37.1,36.9 C37.1,36.6 36.9,36.5 36.9,36.2 C36.8,35.4 36.8,35.2 36.6,34.9 C36.6,34.9 36.8,35.1 37.1,35.6 C37.2,36 37.4,36.5 37.5,37.2 C37.6,37.6 37.7,38.3 37.7,38.3 C37.8,36.4 37.5,35.7 37.5,35.7 C37.4,35.4 37.2,34.9 37,34.6 C36.8,34.3 36.6,34 36.5,33.9 C35.7,32.6 35.6,32.2 34.8,30.7 C34,29.2 34.2,27.9 34.2,27.9 C34.2,27.9 34.4,28.5 34.5,28.6 C34.6,28.7 34.7,29 34.7,29.5 C34.7,29.6 34.7,30.1 35.1,30.9 C35.6,31.9 36,32.7 36.3,33 C36.6,33.3 36.7,33.3 36.7,33.3 C36.6,32.1 35.5,28.3 35.5,28.3 C35.5,28.3 35.9,28.5 36.1,29.2 C36.2,29.4 36.3,30.2 36.5,31 C36.8,32.1 37.6,35 37.6,35.1 C37.3,33.2 37.4,33.2 37.2,32.4 C37.1,31.9 37.1,31.3 37,30.6 C36.9,29.6 36.8,29.3 36.8,29.1 C36.7,27.2 36.1,27.1 36.1,27.1 C36.4,26.4 36,26.2 36,26.2 C35.8,26.1 35.5,26 35.4,26 C35.1,26.2 35.2,25.8 35,25.9 C34.8,26 34.5,26.1 34.5,26.1 C35.2,25.5 34.9,25.4 34.9,25.4 C34.2,26.3 33.3,26.2 33.3,26.2 L32.6,26.2 C32.5,26.2 32.4,26.3 32.4,26.4 C32.4,26.4 32.4,26.4 32.3,26.3 C32.4,26.2 32.4,26.1 32.3,26 C32.2,26 32.2,25.9 32.2,25.9 C32.2,25.9 32.1,25.6 32.2,25.4 C32.3,25.3 32.4,25.2 32.4,25 C32.2,25 31.9,25.1 31.8,25.2 C31.7,25.3 31.6,25.4 31.5,25.6 C31.4,25.7 31.3,25.9 31.2,26.1 C31.1,26.3 31.4,26.5 31.4,26.5 C31.4,26.5 30.8,26.4 31.2,25.9 C31.1,26 30.9,26 30.8,26.2 C30.7,26.3 30.6,26.6 30.5,26.8 C30.4,27 30.3,27.3 30.2,27.4 C30.1,27.5 29.8,28 29.9,28.2 C30,28.1 30.3,27.9 30.3,27.9 C30.4,27.9 30.5,27.8 30.7,27.9 C30.8,27.9 30.8,27.9 31.1,27.7 C31.3,27.5 31.4,27.2 31.7,27 C31.9,26.9 32.1,26.8 32.3,26.7 C32.3,26.8 32.4,26.8 32.4,26.8 L32.5,26.8 C32.5,27 32.4,27.4 32.4,27.7 L32.4,28.2 C32.5,28.8 32.6,29.1 32.7,29.4 C32.7,29.4 32.3,28.8 32.3,28.4 C32.3,28.4 32.3,30.5 32.5,30.9 C32.4,31 32.2,31.1 32.2,31.1 L32.1,31.1 L31.9,31.3 C31.9,31.3 31.9,31.3 31.8,31.3 C31.6,31.4 31.3,31.6 31.2,31.6 L30.9,31.6 C30.8,31.6 30.7,31.7 30.6,31.8 C30.6,31.8 30.2,31.9 30.1,31.8 C30,31.8 29.8,31.6 29.6,31.5 C29.5,31.4 29.4,31.4 29.4,31.3 C29.6,31.2 29.7,31.1 29.8,31 C29.8,30.9 29.8,30.8 29.7,30.7 L29.7,30.7 L29.1,30.4 C29.6,30.3 29.6,30.5 29.9,30.3 C30.1,30.1 30.5,29.8 30.8,29.5 C31.1,29.3 31,28.8 31.1,28.5 C31.1,27.4 30.1,28 30.1,28 L30,28.3 C30,28.4 29.8,28.4 29.8,28.4 C30.6,28.9 30.1,29.5 30.1,29.5 C30.1,29.5 30.4,28.9 29.8,28.7 C29,28.5 28.8,27.8 28.7,27.6 C28.5,27.3 28.2,27.7 28,27.7 C27.9,27.7 27.8,27.8 27.5,27.7 C27.3,27.7 27.2,27.5 27.1,27.4 C27,27.3 27,27.1 27,27.1 C27,27.1 26.8,27.3 27,27.6 C27.2,27.9 27.3,28.4 27.4,28.6 C27.5,28.8 27.6,29.3 28.5,30.4 C28.5,30.4 28.5,30.4 28.6,30.5 C28.5,30.6 28.4,30.6 28.4,30.8 C28.4,31 28.5,31.1 28.7,31.3 L28.7,31.3 C28.5,31.4 28.3,31.5 28.2,31.5 C28,31.6 27.9,31.7 27.9,31.8 C27.9,31.9 28,32 28.2,31.8 C28.2,31.8 28.6,31.6 28.7,31.6 L28.9,31.6 C28.9,31.6 28.2,31.9 28.1,32 C28,32.1 27.9,32.1 27.9,32.3 C27.9,32.4 28,32.4 28.1,32.4 C28.2,32.4 28.6,32.2 28.7,32.2 C28.9,32.1 28.8,32.2 28.9,32.2 C28.9,32.2 28.1,32.5 28.1,32.6 C28,32.6 28,32.7 28,32.8 C28,32.9 28.1,32.9 28.2,32.9 C28.3,32.9 28.6,32.7 28.7,32.7 L28.9,32.7 L28.2,33 C28.2,33 28.2,33 28.2,33.1 L27,32.7 L26.8,33.9 L28.4,33.9 C28.4,33.9 27.8,37.6 27.2,40.5 C26.6,41 26.7,41.8 26,42.7 L26,42.7 Z" id="Shape"></path>
                <path d="M20,32.4 C20,32.4 20,32.3 20,32.4 C20,32.3 20,32.4 20,32.4" id="Shape"></path>
                <path d="M18,28.5 C18,28.5 18.1,29.4 18.4,29.6 C18.8,29.8 19,30.2 19.5,30 C19.5,30 21.3,28.3 21.3,27.6 C21.1,27.4 21,27.2 21,27.2 C21.1,27.5 21.4,27.7 21.6,27.5 C22,27.1 22,27 22,27 C22.3,27.1 22.6,26.7 22.6,26.6 C22.6,26.5 22.5,26.4 22.5,26.4 C22.8,26.6 22.9,26.2 22.9,26.2 L23.1,26 L23.1,25.9 C23.5,26 23.9,25.7 23.9,25.7 L23.9,25.6 C23.9,25.5 23.7,25.5 23.7,25.5 L22.6,25.6 C22.4,25.7 22.5,25.9 22.5,26 C22.5,26.2 22.4,26.2 22.4,26.2 C22.5,26 22.4,26 22.4,25.8 C22.3,25.7 22.2,25.7 22.3,25.6 C22.3,25.5 22.4,25.4 22.7,25.4 C22.9,25.4 23.1,25 23.1,24.8 C23.1,24.7 23.1,24.7 23,24.7 C22.9,24.7 22.6,24.8 22.5,24.9 C22.4,25 22,25 22,25 C22,25 22.1,25 22.3,24.9 C22.5,24.8 22.8,24.6 22.8,24.6 C22.9,24.6 23.2,24.5 23.3,24.5 C23.8,24.3 23.6,24.1 23.5,24.1 C23.4,24.1 22.9,24.2 22.8,24.2 C22.7,24.2 21.7,24.7 21.6,24.7 C21.5,24.8 21.2,25.5 21.1,25.6 C21.1,25.7 20.9,26.1 20.9,26.1 C20.6,26 20.5,26.3 20.4,26.4 C20.3,26.5 19.7,27.2 19.7,27.3 C19.6,27.4 18.9,27.9 18.9,27.9 C18.7,28.2 18.8,28.5 18.8,28.5 C18.8,28.5 18.6,28.3 18.7,28 C18.7,28 18.8,27.8 18.7,27.7 C18.7,27.6 18.6,27.5 18.6,27.5 C18.6,27.4 18.5,27.4 18.5,27.4 C18.5,27.5 17.9,27.1 18,28.5" id="Shape"></path>
                <path d="M21.5,31.6 C21.5,31.8 21.5,32 21.6,32.3 C21,32.4 20.4,32.5 19.9,32.6 C19.7,32.8 19.3,33 18.9,33.2 L18.9,33.2 C18.9,33.4 19,33.5 19,33.5 C19,33.5 20.3,33.5 21.7,33.4 C21.8,34.1 21.8,34.8 21.9,35.5 L21.9,35.5 C22,35.7 22.1,36.9 22,37 L22,37 L22,37 L22,37 C20.8,35.2 19,34.5 17.9,34.3 C17.6,34.3 17.4,34.3 17.4,34.7 C17.4,34.7 17.3,35.4 17.4,35.8 C17.4,36.1 17.6,36.6 17.8,36.7 C18,36.8 18.2,36.7 18.2,36.7 C18.1,36.7 18,36.8 17.9,36.9 C17.8,37 17.5,37.1 17.4,37.3 C17.3,37.5 17.8,37.4 17.8,37.4 C17.8,37.5 18.1,37.5 18.1,37.5 C18.1,37.5 18.1,37.8 18.9,37.4 C19.3,37.2 19.5,37 19.9,36.9 C19.8,36.9 19.6,37.1 19.5,37.2 C19.2,37.4 19.1,37.6 18.8,37.8 C18.6,38 17.8,38.3 17.3,38.4 C17.4,38.5 17.6,38.4 17.6,38.4 C17.6,39.7 19.6,38.6 19.6,38.6 C18,39.9 17.3,38.6 16.9,39.2 C18.8,40.5 20.8,38.2 21.3,37.8 C21.8,37.3 22.4,37.4 22.4,37.4 C22.4,37.4 22.4,37.9 22.3,38.5 L22.3,38.5 C22.5,40.4 22.6,42 22.6,42.2 C22.7,42.8 22.7,43.1 22.4,43.2 C22.1,43.4 21.9,43.3 21.6,43.1 C21.4,43 21.2,42.8 21.1,42.6 L21.1,42.6 L21.1,42.6 C20.9,42.4 20.7,42.1 20.6,41.9 C20.9,42.1 21.1,42.1 21.2,42.1 L21.2,42.1 C21.3,42.1 21.3,42 21.3,42 L21.4,41.9 L21.3,41.8 C21.3,41.8 21.3,41.8 21.2,41.8 L21.2,41.8 L21.2,41.8 C20.3,41.2 20.1,40.1 20,39.7 C20,40 20.2,40.5 20.7,40.8 C21.6,39.6 21.9,38.8 21.5,38.3 C21.3,38.1 20.5,38.5 20,38.8 C19.6,39 19.3,39.3 18.7,39.8 C18.2,40.2 17.2,41.2 17.2,41.2 C17.2,41.2 18.3,39.7 17.7,39.8 C17.3,40 17.1,40.6 16.8,41.1 C16.5,41.6 16.6,41.7 16.1,42 C16.1,43.1 18.1,41.9 18.8,41.1 C19.2,40.7 19.4,40.5 19.5,40.2 L19.5,40.3 C19.4,40.5 19.4,40.8 19.4,41 C19.1,41.2 19.2,41.2 19,41.3 C19,41.3 19,41.3 18.9,41.4 C18.6,41.7 17.4,42.6 16.3,43 C15.8,43.2 16.3,44 16.3,44 C16.2,44.5 17,45.1 17,45.1 C17,45.1 17.4,45.2 17.7,45 C18.1,45.1 18.7,44.9 19.2,44.6 C19.9,44.2 20.6,43.7 20.6,43.7 C20.4,43.5 20.2,43.4 20.1,43.4 C20.1,43.4 19.9,43.3 19.5,43.4 C19.1,43.5 18.6,43.7 17.8,44.2 C17.8,44.2 18.6,43.5 19.3,42.7 C19.5,42.5 19.3,42 19.3,41.5 C19.3,42.3 19.7,42.9 19.8,42.9 L20,43.1 L20,42.8 L20,42 C20.2,42.7 20.5,43.2 20.7,43.5 L20.7,43.5 L20.7,43.5 C20.9,43.8 21.1,44 21.3,44.1 C21.7,44.4 22.4,44.9 22.9,45.2 L22.9,45.2 L22.9,45.2 C23.2,45.4 23.4,45.5 23.4,45.5 L23.5,45.5 L23.5,45.5 C23.5,45.5 24.6,44.3 25.2,43.6 C25.4,43.3 25.9,42.8 26,41.3 C26.1,41.5 26.2,41.8 26.2,42 L26.2,42.2 C26.2,42.2 26.2,42.2 26.2,42.3 L26.2,42.2 L26.2,42.3 L26.3,42 C26.3,42 26.6,41.4 26.4,40.6 C26.3,40 26.1,39.4 25.4,38.8 L25.2,38.6 L25.2,38.8 C25.2,38.8 25.5,40.3 24.5,41.3 L24.4,41.4 L24.5,41.4 C24.5,41.4 24.9,41.5 25.3,41.1 C25.2,41.4 25,42 24.6,42.4 C24.3,42.7 24.2,42.7 23.8,42.7 C23.6,42.6 23.5,42.4 23.4,41.8 C23.3,41.4 22.6,36.4 22.2,33.1 C23.6,32.9 24.9,32.6 24.9,32.6 C25,32.6 25,32.4 25,32.3 C25,32.1 24.9,32 24.9,32 C24.9,32 23.5,32 22.1,32.1 C22.1,31.9 22,31.7 22,31.5 L22.1,31.5 L21.6,31.5 C21.6,31.6 21.5,31.6 21.5,31.6" id="Shape"></path>
                <path d="M13.4,43.6 C13.5,43.3 13.5,42.3 13.5,42.3 C13.5,42.5 13.5,43.1 13.1,43.7 C13,43.9 12.8,44.8 12.8,44.8 C12.8,44.8 12.9,45 13.3,44.9 C13.1,44.2 13.2,44 13.4,43.6" id="Shape"></path>
                <path d="M19.4,30.8 C19.4,30.8 18.6,31.1 18.3,31.3 C17.8,31.6 17.6,32.1 17.6,32.3 C17.6,32.6 17.5,33 18.3,32.7 C19.8,32.2 19.7,32.1 19.7,32.1 C19.5,31.9 19.7,30.9 19.7,30.9 C19.7,30.8 19.4,30.8 19.4,30.8" id="Shape"></path>
            </g>
            <polygon id="Shape" points="117 8.2 120.8 8.2 120.8 8.2 120 11.9 120 11.9 120 11.9 120 11.9 120 11.9 122.3 8.9 122.3 8.9 124.7 11.9 123.8 8.2 123.8 8.2 127.6 8.2 124.2 6.6 126.6 3.6 123.2 5.3 122.3 1.6 121.5 5.3 118.1 3.6 118.1 3.6 120.4 6.6 120.4 6.6"></polygon>
            <g id="Group" transform="translate(87.000000, 2.000000)">
                <path d="M33.9,56.2 C31.5,58.1 28.4,59.2 24.9,59.2 C21.5,59.2 18.3,58.1 15.9,56.2 C13.5,58.1 10.4,59.2 6.9,59.2 L6.2,59.2 C7.1,60.2 8,61.1 9,62 C11.6,61.7 14,60.6 15.9,59.1 C18.3,61 21.5,62.1 24.9,62.1 C28.3,62.1 31.5,61 33.9,59.1 C35.8,60.6 38.2,61.6 40.8,62 C41.8,61.2 42.7,60.2 43.6,59.2 L42.9,59.2 C39.4,59.2 36.3,58.1 33.9,56.2" id="Shape"></path>
                <path d="M43.6,59.2 L43.6,59.2 C43.6,59.1 43.6,59.2 43.6,59.2 L43.6,59.2 L43.6,59.2 Z" id="Shape"></path>
                <path d="M17.9,20.1 C17.8,20.1 17.7,20 17.6,20 L17.2,20 C17.2,20 17.4,20 17.5,19.9 C17.6,19.8 17.9,19.7 18.2,19.9 C18.1,20 18,20.2 17.9,20.1 M17.8,20.4 C17.7,20.4 17.7,20.5 17.6,20.4 C17.5,20.4 17.6,20.3 17.4,20.2 C17.4,20.2 17.4,20.2 17.6,20.1 C17.8,20 17.9,20.1 17.9,20.1 L17.8,20.4 M17.6,19.1 C17.6,19.1 17.4,19.2 17.2,19.2 C17.2,19.2 16.9,19.4 16.8,19.7 C16.8,19.8 16.7,19.9 16.7,20 C16.6,20.1 16.5,20.1 16.5,20.1 L16.5,20.3 C16.4,20.4 16.4,20.6 16.3,20.6 C16.2,20.7 16.2,20.9 16.2,20.9 C16.3,21 16.2,21 16.2,21.1 L16.2,21.5 C16.2,21.7 16.2,21.8 16.1,21.9 C16,22 16.1,22.1 16.1,22.1 L16,22.2 C16.2,22.6 16.6,22.5 16.8,22.5 L17.2,22.5 C17.3,22.5 17.6,22.6 17.7,22.6 C18.1,22.5 18,22.2 17.9,22.1 C17.9,22 17.7,21.8 17.7,21.8 C17.7,21.8 17.9,21.9 18,21.9 L18,21.8 L17.9,21.8 L17.6,21.8 C17.6,21.8 17.9,21.7 18.2,21.8 L18.2,21.5 C18.7,21.5 18.6,21.2 18.5,21.1 C18.5,21 18.4,20.8 18.3,20.7 C18.3,20.6 18.2,20.5 18.2,20.4 L18.2,20.2 C18.1,19.9 18.2,19.4 18.2,19.4 C18.1,19.4 18,19.3 18,19.3 C18,19.3 17.7,19.2 17.6,19.1" id="Shape"></path>
                <path d="M33.9,50.5 C31.5,52.4 28.4,53.5 24.9,53.5 C21.5,53.5 18.3,52.4 15.9,50.5 C13.5,52.4 10.4,53.5 6.9,53.5 C5.2,53.5 3.6,53.2 2.1,52.7 L2.1,52.7 C2.6,53.9 3.2,55 3.8,56 C4.8,56.2 5.8,56.3 6.8,56.3 C10.2,56.3 13.4,55.2 15.8,53.3 C18.2,55.2 21.4,56.3 24.8,56.3 C28.2,56.3 31.4,55.2 33.8,53.3 C36.2,55.2 39.4,56.3 42.8,56.3 C43.9,56.3 44.8,56.2 45.8,56 C46.5,54.9 47,53.8 47.5,52.7 C46,53.2 44.4,53.5 42.7,53.5 C39.4,53.5 36.3,52.3 33.9,50.5" id="Shape"></path>
                <path d="M14.7,21.6 L14.7,21.4 C14.7,21.2 14.9,21 14.9,21 C14.7,21.8 15,22.1 15,22.1 C15,22.1 14.9,21.8 15.1,21.5 C15.1,21.5 15,21.8 15.1,21.8 C15.1,21.8 15.1,21.6 15.3,21.4 C15.4,21.2 15.5,21.2 15.5,21 C15.5,20.8 15.6,20.7 15.6,20.6 C15.6,20.6 15.5,20.7 15.5,21 L15.5,21.3 C15.4,21.5 15.3,22 15.6,22.2 C15.6,22.2 15.4,21.8 15.6,21.6 C15.6,21.6 15.6,22 15.8,22.1 C15.8,22.1 15.7,21.8 15.8,21.6 C15.9,21.4 15.9,21.3 15.9,21.2 C15.9,21.2 16,21.5 15.9,21.6 C15.8,21.7 15.9,21.9 16,22 C16,22 15.9,21.9 16.1,21.7 C16.2,21.5 16.3,21.3 16.3,21.1 C16.2,20.9 16.1,20.7 16.4,20.3 L16.4,20.8 L16.4,20.6 C16.5,20.4 16.5,20.4 16.5,20.2 C16.5,20 16.6,19.9 16.6,19.9 C16.6,19.9 16.6,19.9 16.6,20 L16.6,20.1 L16.6,20.3 C16.7,20.2 16.6,20 16.6,19.9 C16.6,19.7 16.7,19.6 16.7,19.6 L16.7,19.9 L16.7,20.2 C16.7,20.2 16.8,20.2 16.8,19.9 C16.8,19.7 16.9,19.6 16.9,19.5 C17,19.6 16.9,19.9 16.9,19.9 C17.1,19.7 17,19.6 17,19.4 C17,19.2 17.1,19.1 17.1,19.1 C17,19.2 17.1,19.3 17.1,19.3 C17.2,19.3 17.3,19.2 17.3,19.2 C17.3,19.2 17.6,19.1 17.6,18.9 C17.6,18.9 17.7,19.2 17.9,18.9 C17.9,18.9 17.9,19 18,19 C18.2,19.1 18.1,18.7 18.1,18.7 C18.1,18.7 18.2,18.7 18.2,18.8 C18.3,19 18.3,18.7 18.3,18.7 C18.1,18.4 17.5,18.3 17.2,18.2 C16.9,18.2 16.6,18.1 16.2,18.2 C15.7,18.2 15.5,18.4 15.3,18.6 C15.1,18.8 14.9,19.2 14.7,20 C14.5,20.9 14.3,21.6 14.3,21.7 C14.1,22.4 14.6,22 14.7,21.6" id="Shape"></path>
                <path d="M19.6,31.8 C18.9,31.5 18.4,31.3 18.4,31.3 C17.4,31.5 18,31.9 18.2,32 C18.7,32.2 19.3,32.5 20.1,33 C20.8,33.5 21.9,34.1 21.9,33.5 C21.4,32.8 20.4,32.2 19.6,31.8" id="Shape"></path>
                <path d="M12.9,9.2 C11.8,9.2 10.8,8.8 10,8.1 C10.9,9.2 12.3,10 13.9,10 C16.6,10 18.9,7.8 18.9,5 C18.9,2.3 16.7,-5.68434189e-14 13.9,-5.68434189e-14 C12.3,-5.68434189e-14 10.9,0.7 10,1.9 C10.8,1.2 11.8,0.8 12.9,0.8 C15.2,0.8 17.1,2.7 17.1,5 C17.1,7.3 15.2,9.2 12.9,9.2" id="Shape"></path>
                <path d="M14.8,24.2 C14.8,24.2 14.7,24.1 14.5,24.1 C14.3,24 14.1,23.9 14,23.7 C13.9,23.5 14.1,23.3 14.2,23.2 C14.2,23.1 13.8,23.4 14.8,24.2 M15.6,27.8 C15.9,28.6 16.5,28.4 16.5,28.4 C15.4,28.9 14.9,30.9 14.9,30.9 C15.1,29.4 15.9,28.9 15.6,27.8 M14.3,23.3 C14.3,23 14.5,22.9 14.7,22.8 C14.7,22.8 14.5,22.8 14.2,23.1 C14.1,23.2 13.9,23.3 13.8,23.5 C13.5,23.9 13,24.5 12.8,25.2 C12.4,26.5 12.4,27 12.4,27.8 C12.4,28.3 12.2,29.9 12.2,31 C12.2,31.7 12.1,32.2 12.1,32.5 C12.1,32.8 12,42.4 12,42.4 L12.2,40.2 L12.7,34.9 C12.7,34.9 12.9,32.9 13,31.6 C13.1,30.3 13.2,27.9 13.2,27.5 C13.2,27.1 13.4,26.2 13.6,26 L13.3,34 C13.3,34 13.4,35.7 13.4,36.4 C13.4,36.4 13.3,40.3 13.3,40.5 L13.8,43.2 C14,43.3 14.2,43.3 14.5,43.1 L14.2,42.3 L13.8,39.9 C13.8,39.9 13.9,39.9 14,39.8 C14.1,39.7 14.2,39.4 14.2,39.4 C14.2,38.6 15,34 15.3,33.2 C15.6,32.4 15.7,30.3 17.7,29.1 C17.7,29.1 17.5,28.9 17.1,28.8 C16.7,28.7 16.8,28.7 16.8,28.7 C17,28.5 16.5,27.9 16.5,27.9 C16,27.1 15.7,27 15.4,26.5 C14.9,25.9 15.4,25.7 15.4,25.7 C15.5,26.1 15.6,26.3 15.8,26.6 C16,26.9 16.5,27.9 16.5,27.9 C16.5,27.9 16.7,26.5 15.7,25.3 C15.5,25 15.2,24.8 15,24.6 L14.8,24.4 C14.7,24.3 14.5,24.1 14.4,24 L14.4,23.9 C14.5,24 14.6,24.1 14.8,24.1 C15.6,24.4 16.4,24.6 16.8,24.3 C16.9,24.2 16.9,23.9 16.9,23.8 C16.8,23.7 16.7,23.6 16.8,23.3 C16.8,23.2 16.9,23.1 16.6,23.1 C16.3,23.1 16.1,22.9 16,22.8 C16,22.7 15.9,22.6 15.9,22.6 L15.7,22.6 C15.7,22.6 15.6,22.8 15.5,22.7 C15.5,22.7 15.3,22.8 15.1,22.7 L14.8,22.8 C14.8,23 14.7,23.3 14.7,23.3 C14.7,23.3 14.4,23.1 14.3,23.3" id="Shape"></path>
                <path d="M24.9,64.9 C21.5,64.9 18.3,63.8 15.9,61.9 C14.7,62.8 13.4,63.5 11.9,64 L11.9,64 C12.8,64.6 13.8,65.1 14.7,65.5 C15.1,65.3 15.5,65 15.8,64.7 C18.2,66.6 21.4,67.6 24.8,67.6 C28.2,67.6 31.4,66.5 33.8,64.7 C34.2,65 34.5,65.2 34.9,65.5 C35.9,65.1 36.8,64.6 37.7,64 C36.2,63.5 34.9,62.8 33.7,61.9 C31.5,63.8 28.3,64.9 24.9,64.9" id="Shape"></path>
                <path d="M32.1,19.6 C32,19.6 31.7,19.7 31.4,19.6 C31.1,19.6 30.8,19.3 30.8,19.3 C30.8,19.2 30.8,19.2 30.9,19.2 C31,19.2 31,19.3 31,19.4 C31,19.5 31.2,19.6 31.4,19.6 C31.4,19.5 31.3,19.4 31.3,19.4 L31.5,19.6 C32.2,19.8 31.8,19.4 31.8,19.4 C32.3,19.6 32.2,19.9 32.3,20.2 C32.2,20.1 32.2,20 32.2,19.9 C32.2,19.6 32.1,19.6 32.1,19.6 M31.2,20.3 C31.1,20.3 31,20.2 31,20.2 C31.2,20.1 31.5,20 31.6,20 C31.9,20 32,20.2 32,20.2 C31.5,20 31.3,20.3 31.2,20.3 M31.7,20.3 C31.6,20.4 31.7,20.5 31.5,20.5 C31.3,20.5 31.3,20.3 31.3,20.3 C31.3,20.3 31.5,20.2 31.7,20.2 C31.9,20.2 31.9,20.3 31.9,20.3 C31.9,20.3 31.8,20.2 31.7,20.3 M33.1,21.7 C33,21.6 33,21.2 33,21 C33,20.9 32.8,20.7 32.7,20.5 C32.7,20.5 32.8,20.7 33.1,20.8 C33.3,20.9 33.5,21.2 33.5,21.3 C33.5,21.3 33.4,21.2 33.3,21.2 C33.1,21.3 33.1,21.5 33.1,21.7 C33.3,22 33.4,21.6 33.4,21.6 C33.4,21.6 33.5,21.7 33.4,21.8 C33.4,21.8 33.5,22 33.7,21.8 C33.8,21.7 33.8,21.2 33.3,20.8 C32.8,20.4 32.8,20.2 32.8,20.2 C32.8,20.2 32.9,20.4 33.2,20.5 C33.5,20.6 33.6,20.8 33.7,21 C33.7,21 33.7,20.9 33.4,20.9 C33.4,20.9 34,21.5 33.8,21.9 C33.8,21.9 34,21.7 33.9,21.3 C33.9,21.3 34.1,21.5 34.1,21.6 C34.1,21.6 34.3,21.3 33.9,20.9 C33.7,20.7 33.7,20.6 33.7,20.5 C33.7,20.4 33.6,20.4 33.5,20.2 C33.4,20.1 33.4,19.9 33.3,19.7 C33.3,19.7 33.3,19.8 33.5,19.9 C33.5,19.9 33.6,19.5 33.4,19.3 C33.4,19.3 33.6,19.5 33.6,19.6 C33.6,19.8 33.7,19.9 33.8,20 C33.9,20.1 34,20.2 33.9,20.5 C33.9,20.8 34.1,20.8 34.2,20.9 C34.3,21 34.5,21.2 34.5,21.5 C34.5,21.5 34.7,21.3 34.4,20.9 C34.2,20.5 34.3,20.4 34.3,20.4 C34.3,20.4 34.3,20.7 34.6,20.7 C34.6,20.7 34.7,20.6 34.3,20.1 C34,19.7 33.7,19.3 33.7,18.8 C33.7,18.8 33.7,19 34,19.1 C34,19.1 33.9,18.9 33.9,18.7 C33.9,18.5 33.8,18 32.9,17.8 C32.6,17.8 31.5,18 31.3,18.1 C31.1,18.3 30.8,18.6 30.8,19 C30.8,19.1 31,19.5 31,19.5 L31,19.6 L31,19.7 C31,19.8 30.9,19.9 31,19.9 L31,20 C31,20.1 30.8,20.7 30.8,20.8 C30.8,20.9 30.8,21 31,21 L31.2,21 L31.2,21.2 C31.3,21.1 31.4,21.1 31.4,21.1 L31.7,21.1 C31.7,21.1 31.5,21.1 31.4,21.2 L31.2,21.2 L31.2,21.3 C31.2,21.3 31.5,21.3 31.6,21.2 C31.6,21.2 31.5,21.3 31.4,21.4 C31.3,21.4 31.2,21.4 31.2,21.3 C31.2,21.3 31.3,21.3 31.3,21.5 C31.3,21.7 31.2,21.9 31.5,21.9 L31.9,21.9 L32.2,21.9 C32.4,22.3 33,22.1 33.1,21.7" id="Shape"></path>
                <path d="M45.1,46.7 L40.6,46.7 L40.6,44 L36.1,44 L36.1,46.7 L31.6,46.7 L31.6,44 L27.1,44 L27.1,46.7 L22.6,46.7 L22.6,44 L18.1,44 L18.1,46.7 L13.6,46.7 L13.6,44 L9.1,44 L9.1,46.7 L4.6,46.7 L4.6,44 L0.2,44 C0.3,45.9 0.5,47.7 1,49.4 C2.8,50.2 4.8,50.6 6.9,50.6 C10.3,50.6 13.5,49.5 15.9,47.6 C18.3,49.5 21.5,50.6 24.9,50.6 L24.9,50.6 C28.3,50.6 31.5,49.5 33.9,47.6 C36.3,49.5 39.5,50.6 42.9,50.6 C45,50.6 47,50.2 48.8,49.4 C49.3,47.7 49.5,45.8 49.6,44 L45.2,44 L45.2,46.7 L45.1,46.7 Z" id="Shape"></path>
                <path d="M15.5,24.1 C15.2,24 15.3,24.2 15.4,24.3 C15.9,24.8 16.8,25.9 16.8,26.9 C16.8,26.9 17.4,27.1 17.5,26.2 C17.6,25.7 17.4,24.7 17.3,24.5 C17.3,24.5 17.4,24.6 17.6,25.1 C17.9,25.8 17.8,26.1 17.9,26.7 C17.9,26.6 18,26.4 18,26.2 L18,25.7 C18,25.2 18,24.8 17.9,24.6 C17.8,24.4 17.7,24.3 17.7,24.2 C17.7,24.1 17,23.3 17,23.3 C17,23.5 16.9,23.6 16.8,23.7 C16.5,24.2 16,24.2 15.5,24.1" id="Shape"></path>
                <path d="M32.3,23.9 C32.5,24 32.8,24 33.1,24 C33.4,24 33.7,23.9 33.9,23.8 L34.3,23.4 C34.4,23.3 34.4,23.2 34.5,23.2 L34.5,23.1 C34.5,23 34.5,22.8 34.2,22.5 C34.1,22.4 33.9,22.1 33.9,22.1 L33.9,22.1 C33.8,22.1 33.6,22 33.6,22 C33.4,22.1 33.3,21.9 33.3,21.9 C33.2,21.9 33.1,21.9 33,21.7 C33.1,22 32.5,22.2 32.3,22.5 C32.1,22.7 32,22.4 31.9,22.6 C31.9,22.8 32,22.8 32,22.9 L32,23.3 C32,23.5 32,23.9 32.3,23.9" id="Shape"></path>
                <path d="M36.1,42.6 C36.1,42.4 36,42.4 35.8,42.5 C35.7,42.6 35.4,42.4 35.2,42.4 L34.9,42.4 L34.6,42.4 C34.2,42.3 34.2,42.8 34.2,42.8 C34.2,42.9 34.2,42.9 34.3,42.9 C34.4,43 34.5,43 34.5,43 C34.6,43 34.5,43.1 34.6,43.1 C34.6,43.1 35.1,43.5 35.4,43.2 C35.5,43.1 35.1,42.8 35.1,42.8 C35.1,42.8 35.3,42.9 35.4,43 C35.5,43.1 35.7,43.2 35.8,43.1 C35.9,42.9 35.5,42.7 35.5,42.7 C35.5,42.7 35.7,42.8 35.8,42.9 C35.9,43.1 36,43.1 36.1,42.9 C36,42.7 35.8,42.6 35.8,42.6 C35.8,42.6 35.9,42.6 36,42.7 C36.1,42.8 36.2,42.8 36.2,42.6 C36.3,42.7 36.1,42.6 36.1,42.6" id="Shape"></path>
            </g>
            <path d="M26.1,30.1 L25.3,27.5 L21.8,27.5 L20.9,30.1 L18.8,30.1 L22.6,19.5 L24.4,19.5 L28.2,30.1 L26.1,30.1 L26.1,30.1 Z M23.5,21.9 L22.3,25.7 L24.7,25.7 L23.5,21.9 L23.5,21.9 Z" id="Shape"></path>
            <path d="M36.1,30.1 L35.3,27.5 L31.8,27.5 L30.9,30.1 L28.8,30.1 L32.6,19.5 L34.4,19.5 L38.2,30.1 L36.1,30.1 L36.1,30.1 Z M33.5,21.9 L32.3,25.7 L34.7,25.7 L33.5,21.9 L33.5,21.9 Z" id="Shape"></path>
            <path d="M44.9,30.1 L42.5,25.9 L41.5,25.9 L41.5,30.1 L39.5,30.1 L39.5,19.5 L43,19.5 C44.5,19.5 45.2,19.7 45.9,20.3 C46.5,20.8 46.8,21.6 46.8,22.6 C46.8,23.4 46.6,24.1 46.2,24.6 C45.8,25.1 45.4,25.3 44.6,25.6 L47.2,30.1 L44.9,30.1 L44.9,30.1 Z M42.7,21.2 L41.4,21.2 L41.4,24.1 L42.7,24.1 C44,24.1 44.5,23.7 44.5,22.6 C44.6,21.6 44.1,21.2 42.7,21.2 L42.7,21.2 Z" id="Shape"></path>
            <polygon id="Shape" points="56 30.1 56 25.6 50.6 25.6 50.6 30.1 48.6 30.1 48.6 19.5 50.6 19.5 50.6 23.7 56 23.7 56 19.5 58 19.5 58 30.1"></polygon>
            <path d="M67.8,29.5 C67,30 66.1,30.3 64.8,30.3 C63.5,30.3 62.6,30.1 61.8,29.5 C60.7,28.7 60.4,27.9 60.4,25.9 L60.4,19.5 L62.4,19.5 L62.4,26 C62.4,27.6 63.2,28.4 64.9,28.4 C66.4,28.4 67.3,27.6 67.3,26 L67.3,19.5 L69.3,19.5 L69.3,25.9 C69.3,27.9 68.9,28.7 67.8,29.5 L67.8,29.5 Z" id="Shape"></path>
            <path d="M77.6,22 C76.5,21.5 75.6,21.2 74.9,21.2 C74,21.2 73.3,21.6 73.3,22.2 C73.3,22.6 73.6,22.9 74.3,23.3 C75.9,24.2 77,24.8 77.5,25.3 C77.9,25.7 78.2,26.5 78.2,27.2 C78.2,29.1 76.8,30.2 74.5,30.2 C74.2,30.2 73.9,30.2 73.6,30.1 C72.8,30 72.5,29.9 71.4,29.4 C71.3,29.3 71,29.2 70.7,29.1 L71.5,27.2 C72.3,27.6 72.6,27.8 73,27.9 C73.5,28.1 74.1,28.2 74.5,28.2 C75.4,28.2 76,27.8 76,27.1 C76,26.7 75.8,26.3 75.1,26 L73.5,25.1 C71.6,24 71.1,23.3 71.1,22.2 C71.1,21.7 71.3,21.1 71.5,20.7 C71.7,20.4 71.9,20.2 72.3,19.9 C73.1,19.4 73.7,19.2 75,19.2 C75.7,19.2 76.3,19.3 77,19.5 C77.5,19.7 77.8,19.8 78.5,20.1 L77.6,22 L77.6,22 Z" id="Shape"></path>
            <polygon id="Shape" points="6.3 45.1 2.8 40.1 2.8 45.1 0.8 45.1 0.8 34.5 2.8 34.5 2.8 39.4 6.1 34.5 8.4 34.5 4.8 39.6 8.6 45 6.3 45"></polygon>
            <path d="M14.2,45.3 C10.9,45.3 8.6,43 8.6,39.8 C8.6,36.5 10.9,34.3 14.2,34.3 C17.5,34.3 19.8,36.5 19.8,39.8 C19.8,43 17.5,45.3 14.2,45.3 L14.2,45.3 Z M14.2,36.1 C12.2,36.1 10.7,37.7 10.7,39.8 C10.7,41.9 12.2,43.5 14.2,43.5 C16.2,43.5 17.7,41.9 17.7,39.8 C17.6,37.7 16.2,36.1 14.2,36.1 L14.2,36.1 Z" id="Shape"></path>
            <path d="M30.6,45.1 L30.6,37.4 C30.5,37.9 30.5,38 30.2,38.9 L27.8,45.1 L26,45.1 L23.8,39 C23.6,38.4 23.6,38.2 23.4,37.3 L23.4,45.1 L21.6,45.1 L21.6,34.5 L24,34.5 L26.8,42 C26.9,42.3 27,42.4 27,42.8 C27.1,42.3 27.1,42.2 27.2,42 L30.1,34.5 L32.5,34.5 L32.5,45.1 L30.6,45.1 L30.6,45.1 Z" id="Shape"></path>
            <path d="M44.2,45.1 L44.2,37.4 C44.1,37.9 44.1,38 43.8,38.9 L41.4,45.1 L39.6,45.1 L37.4,39 C37.2,38.4 37.2,38.2 37,37.3 L37,45.1 L35.2,45.1 L35.2,34.5 L37.6,34.5 L40.4,42 C40.5,42.3 40.6,42.4 40.6,42.8 C40.7,42.3 40.7,42.2 40.8,42 L43.7,34.5 L46.1,34.5 L46.1,45.1 L44.2,45.1 L44.2,45.1 Z" id="Shape"></path>
            <path d="M56,44.5 C55.2,45 54.3,45.3 53,45.3 C51.7,45.3 50.8,45.1 50,44.5 C48.9,43.7 48.6,42.9 48.6,40.9 L48.6,34.5 L50.6,34.5 L50.6,41 C50.6,42.6 51.4,43.4 53.1,43.4 C54.6,43.4 55.5,42.6 55.5,41 L55.5,34.5 L57.5,34.5 L57.5,40.9 C57.5,42.9 57.1,43.7 56,44.5 L56,44.5 Z" id="Shape"></path>
            <path d="M66.8,45.2 L62.3,38.4 C62.3,38.4 62.2,38.2 62.1,38 C62,37.9 62,37.8 62,37.8 C61.9,37.7 61.9,37.6 61.9,37.4 L61.9,45.1 L60,45.1 L60,34.5 L62.3,34.5 L66.7,41.4 C66.7,41.4 66.8,41.5 66.8,41.6 C66.8,41.7 66.9,41.8 66.9,41.8 L67,42.1 L67.1,42.3 L67.1,34.5 L69,34.5 L69,45.2 L66.8,45.2 L66.8,45.2 Z" id="Shape"></path>
            <polygon id="Shape" points="71.5 45.1 71.5 34.5 77.9 34.5 77.9 36.2 73.5 36.2 73.5 38.8 77.1 38.8 77.1 40.5 73.5 40.5 73.5 43.3 78.1 43.3 78.1 45 71.5 45"></polygon>
        </g>
    </g>
</svg>