<?xml version="1.0" encoding="UTF-8" standalone="no"?>
<svg width="136px" height="70px" viewBox="0 0 136 70" version="1.1" xmlns="http://www.w3.org/2000/svg" xmlns:xlink="http://www.w3.org/1999/xlink">
    <g id="Page-1" stroke="none" stroke-width="1" fill="none" fill-rule="evenodd">
        <g id="AAK-02-venstrejusteret-negativ" fill="#FFFFFF">
            <g id="Group" transform="translate(58.000000, 18.000000)">
                <path d="M7.7,11.6 L6.9,9 L3.4,9 L2.5,11.6 L0.4,11.6 L4.2,1 L6,1 L9.8,11.6 L7.7,11.6 L7.7,11.6 Z M5.1,3.5 L3.9,7.3 L6.3,7.3 L5.1,3.5 L5.1,3.5 Z" id="Shape"></path>
                <path d="M17.7,11.6 L16.8,9 L13.3,9 L12.4,11.6 L10.3,11.6 L14.2,1 L16,1 L19.8,11.6 L17.7,11.6 L17.7,11.6 Z M15.1,3.5 L13.9,7.3 L16.3,7.3 L15.1,3.5 L15.1,3.5 Z" id="Shape"></path>
                <path d="M26.4,11.6 L24,7.4 L23,7.4 L23,11.6 L21,11.6 L21,1 L24.5,1 C26,1 26.7,1.2 27.4,1.8 C28,2.3 28.3,3.1 28.3,4.1 C28.3,4.9 28.1,5.6 27.7,6.1 C27.3,6.6 26.9,6.8 26.1,7.1 L28.7,11.6 L26.4,11.6 L26.4,11.6 Z M24.3,2.7 L23,2.7 L23,5.6 L24.3,5.6 C25.6,5.6 26.1,5.2 26.1,4.1 C26.2,3.1 25.6,2.7 24.3,2.7 L24.3,2.7 Z" id="Shape"></path>
                <polygon id="Shape" points="37.6 11.6 37.6 7.1 32.2 7.1 32.2 11.6 30.2 11.6 30.2 1 32.2 1 32.2 5.2 37.6 5.2 37.6 1 39.6 1 39.6 11.6"></polygon>
                <path d="M49.4,11 C48.6,11.5 47.7,11.8 46.4,11.8 C45.1,11.8 44.2,11.6 43.4,11 C42.3,10.2 42,9.4 42,7.4 L42,1 L44,1 L44,7.5 C44,9.1 44.8,9.9 46.5,9.9 C48,9.9 48.9,9.1 48.9,7.5 L48.9,1 L50.9,1 L50.9,7.4 C50.9,9.4 50.5,10.3 49.4,11 L49.4,11 Z" id="Shape"></path>
                <path d="M59.2,3.5 C58.1,3 57.2,2.7 56.5,2.7 C55.6,2.7 54.9,3.1 54.9,3.7 C54.9,4.1 55.2,4.4 55.9,4.8 C57.5,5.7 58.6,6.3 59.1,6.8 C59.5,7.2 59.8,8 59.8,8.7 C59.8,10.6 58.4,11.7 56.1,11.7 C55.8,11.7 55.5,11.7 55.2,11.6 C54.4,11.5 54.1,11.4 53,10.9 C52.9,10.8 52.6,10.7 52.3,10.6 L53.1,8.7 C53.9,9.1 54.2,9.3 54.6,9.4 C55.1,9.6 55.7,9.7 56.1,9.7 C57,9.7 57.6,9.3 57.6,8.6 C57.6,8.2 57.4,7.8 56.7,7.5 L55.1,6.6 C53.2,5.5 52.7,4.8 52.7,3.7 C52.7,3.2 52.9,2.6 53.1,2.2 C53.3,1.9 53.5,1.7 53.9,1.4 C54.7,0.9 55.3,0.7 56.6,0.7 C57.3,0.7 57.9,0.8 58.6,1 C59.1,1.2 59.4,1.3 60.1,1.6 L59.2,3.5 L59.2,3.5 Z" id="Shape"></path>
            </g>
            <path d="M15.8,43.5 C15.8,43.5 15.8,43.4 15.7,43.4 L15.6,43.3 C15.6,43.3 15.4,43.4 15.2,43.6 C15,43.9 15.4,44.5 15.4,44.5 C15.1,44.4 14.9,44.1 14.8,43.9 C14.8,43.6 15,43.1 15,43.1 C15.1,42.9 15.2,42.5 15.2,42.2 C15.3,41.9 15.4,41.5 15.5,41.1 C15.7,40.3 16.1,39.4 16.3,38.6 C16.4,38 16.5,37.5 16.6,37.1 C16.7,36.2 16.8,34.6 16.8,33.6 L16.8,33.1 C16.8,33 16.9,31.5 17.6,30.9 C18.1,30.5 18.5,30.6 19,30.3 C19,30.3 18.3,30 17.3,30.2 C17.3,30.2 15.7,31.4 15,37 C15,37 14.1,42.1 14.1,42.7 C14.1,43 14.3,44.3 14.3,44.3 C14.3,44.3 15.1,44.6 15.3,44.6 C15.4,44.6 15.5,44.6 15.8,44.5 C16,44.4 16.2,44.4 16.6,44.5 C15.8,44.1 15.9,43.7 15.8,43.5" id="Shape"></path>
            <path d="M22.5,25.1 L23.4,25.1 C23.7,25.1 23.9,25 23.8,24.8 C23.8,24.6 23.4,24.6 23.4,24.6 L22.7,24.7 C22.8,24.7 22.7,25 22.5,25.1" id="Shape"></path>
            <path d="M31.5,30.1 C31.5,30 31.4,28.9 31.4,28 L31.4,27 C31.4,26.7 31.1,26.9 31.1,27 C31,27.2 30.9,27.2 30.9,27.2 C30.9,27.2 30.8,27.2 30.8,27.4 C30.8,27.2 30.7,27.2 30.7,27.2 C30.5,27 30.4,27.7 30.4,27.7 L30.4,28.2 L30.4,28.4 C30.4,28.7 30.4,29.3 30.6,29.8 C30.6,29.9 30.7,29.9 30.7,29.9 C30.7,29.9 30.6,30.4 30.8,30.6 C31.1,31 31.2,30.9 31.2,30.9 C31.6,30.4 31.5,30.2 31.5,30.1" id="Shape"></path>
            <path d="M20.9,28.6 C21,28.5 21.1,28.4 21.3,28.4 C21.6,28.4 21.9,28.7 21.8,29 C21.8,29.2 21.7,29.3 21.6,29.4 L21.5,29.4 L20.9,29.4 L20.9,29.4 C20.8,29.3 20.7,29.1 20.7,29 C20.8,28.8 20.8,28.7 20.9,28.6 M20.2,29 C20.2,29.2 20.3,29.5 20.4,29.7 L19.8,30.3 C19.7,30.4 19.5,30.5 19.5,30.5 C19.5,30.5 19.3,31.9 19.8,31.7 C19.8,31.7 19.9,31.4 20.2,31.4 C20.7,31.5 20.8,31.3 21,31.2 C21.1,31.1 21.5,31.2 21.5,31.2 C21.8,31.1 22.1,31.3 22.2,31 L22.2,30.9 C22,30.7 21.3,30.8 21.3,30.8 C21.3,30.8 21.4,30.8 21.5,30.7 C21.5,30.7 21.6,30.7 21.6,30.6 C21.6,30.6 21.7,30.6 22,30.7 C22.2,30.8 22.3,30.7 22.3,30.6 C22.3,30.5 22.2,30.4 22.2,30.4 C22.2,30.4 21.9,30.3 21.7,30.2 L21.1,30.2 C21.1,30.2 21.1,30.2 21.4,30.1 C21.5,30.1 21.6,30.1 21.6,30 C21.6,30 21.8,30 22,30.1 C22.2,30.2 22.2,30.2 22.3,30.2 L22.4,30.1 C22.4,30.1 22.4,30.1 22.4,30 C22.4,29.9 22.3,29.8 22.3,29.8 C22.3,29.8 21.8,29.6 21.7,29.6 C21.6,29.6 21.1,29.7 21.1,29.7 C21.2,29.6 21.3,29.6 21.5,29.6 C21.7,29.6 21.7,29.5 21.7,29.5 C21.7,29.5 21.7,29.6 22.1,29.7 C22.2,29.7 22.5,29.9 22.4,29.6 L22.3,29.5 C22.4,29.3 22.5,29.1 22.5,28.9 C22.5,28.3 22,27.8 21.4,27.8 L21.2,27.8 L21.2,27.8 C20.8,28.3 20.5,28.7 20.2,29" id="Shape"></path>
            <path d="M21,43.7 C20.5,43.3 19,44 19,44 C19,44 18.7,44.6 19.3,44.6 C19.6,44.6 20.1,44.6 20.5,44.5 C20.8,44.4 21.3,44.6 21.7,44.6 C22.3,44.4 21,43.7 21,43.7" id="Shape"></path>
            <path d="M12.5,40.5 C12.4,41.2 12.1,42.4 12.1,42.8 C12.1,43.2 12,44 12,44 C12.2,44.1 12.4,44.2 12.4,44.2 L13.2,37.6 C13.3,37.7 12.6,39.8 12.5,40.5" id="Shape"></path>
            <path d="M22.8,24.6 L23.5,24.6 C24,24.6 24.1,24.4 23.9,24.2 C23.8,24.1 23.1,24.1 23.1,24.1 L22.7,24.3 C22.7,24.3 22.9,24.4 22.8,24.6" id="Shape"></path>
            <path d="M47.1,41.9 L45.2,41.9 L45.2,36.8 L45.2,36.7 C45.2,36.2 45.7,35.8 46.2,35.8 C46.7,35.8 47.1,36.2 47.2,36.7 C47.2,36.7 47.2,36.7 47.2,36.8 L47.2,41.9 L47.1,41.9 Z M43.7,35.2 C42.9,35.2 42.2,34.5 42.2,33.7 C42.2,32.9 42.9,32.2 43.7,32.2 C44.5,32.2 45.2,32.9 45.2,33.7 C45.2,34.6 44.5,35.2 43.7,35.2 L43.7,35.2 Z M42.3,41.9 L40.4,41.9 L40.4,36.8 L40.4,36.7 C40.4,36.2 40.9,35.8 41.4,35.8 C41.9,35.8 42.3,36.2 42.4,36.7 C42.4,36.7 42.4,36.7 42.4,36.8 L42.4,41.9 L42.3,41.9 Z M42.7,19.9 L42.7,19.9 C42.7,19.7 42.8,19.4 43,19.3 C43.2,19.1 43.4,19 43.7,19 C44.2,19 44.6,19.4 44.7,19.9 L44.7,20 L44.7,20 L44.7,25.3 L42.8,25.3 L42.8,19.9 L42.7,19.9 Z M9,41.9 L7,41.9 L7,36.8 L7,36.7 C7,36.2 7.5,35.8 8,35.8 C8.5,35.8 8.9,36.2 9,36.7 C9,36.7 9,36.7 9,36.8 L9,41.9 L9,41.9 Z M5.6,35.2 C4.8,35.2 4.1,34.5 4.1,33.7 C4.1,32.9 4.8,32.2 5.6,32.2 C6.4,32.2 7.1,32.9 7.1,33.7 C7.1,34.6 6.4,35.2 5.6,35.2 L5.6,35.2 Z M4.2,41.9 L2.2,41.9 L2.2,36.8 L2.2,36.7 C2.2,36.2 2.7,35.8 3.2,35.8 C3.7,35.8 4.1,36.2 4.2,36.7 C4.2,36.7 4.2,36.7 4.2,36.8 L4.2,41.9 L4.2,41.9 Z M4.6,20 L4.6,20 L4.6,19.8 C4.6,19.3 5.1,18.9 5.6,18.9 C5.9,18.9 6.1,19 6.3,19.2 C6.5,19.4 6.6,19.6 6.6,19.8 L6.6,19.8 L6.6,25.3 L4.6,25.3 L4.6,20 L4.6,20 Z M47.8,30.7 L47.6,16.8 L48.6,16.8 L44.4,8.5 C44.7,8.3 45,7.9 45,7.4 C45,6.7 44.4,6.1 43.7,6.1 C43,6.1 42.4,6.7 42.4,7.4 C42.4,7.9 42.7,8.3 43.1,8.6 L38.9,16.9 L39.9,16.9 L39.8,21 L39.5,20 C38.7,16.7 35.7,14.3 32.2,14.3 L32,14.3 C31.4,11.5 29.3,9.3 26.6,8.6 L26.6,5.8 L27,5.8 L25,1.9 C25.3,1.7 25.6,1.4 25.6,1 C25.6,0.4 25.1,-1.11022302e-16 24.6,-1.11022302e-16 C24,-1.11022302e-16 23.6,0.5 23.6,1 C23.6,1.4 23.8,1.7 24.2,1.9 L22.2,5.8 L22.6,5.8 L22.6,8.5 C19.9,9.3 17.8,11.5 17.2,14.2 L17,14.2 C13.5,14.2 10.5,16.6 9.7,19.9 L9.4,20.9 L9.3,16.8 L10.3,16.8 L6.2,8.5 C6.6,8.3 6.9,7.9 6.9,7.3 C6.9,6.6 6.3,6 5.6,6 C4.9,6 4.3,6.6 4.3,7.3 C4.3,7.8 4.6,8.2 5,8.5 L0.8,16.8 L1.8,16.8 L1.5,30.7 L0.3,30.7 L0,44.6 L11.2,44.6 L11,30.7 L11,24.4 C11,23.4 11.3,21.9 11.5,20.9 C11.6,20.6 11.7,20.2 11.8,19.9 C12.6,17.7 14.6,16.2 17.1,16.2 C17.8,16.2 18.5,16.3 19.1,16.6 C19.1,16.3 19,16.1 19,15.8 C19,12.7 21.5,10.2 24.6,10.2 C27.7,10.2 30.2,12.7 30.2,15.8 C30.2,16.1 30.2,16.3 30.1,16.6 C30.7,16.4 31.4,16.2 32.1,16.2 C34.5,16.2 36.6,17.7 37.4,19.9 C37.5,20.2 37.6,20.5 37.7,20.9 C38,21.9 38.2,23.4 38.2,24.4 L38.2,30.7 L38,44.6 L49.2,44.6 L49,30.7 L47.8,30.7 L47.8,30.7 Z" id="Shape"></path>
            <path d="M26.6,27.2 C26.7,27.2 26.8,27.2 26.9,27.1 C27.1,27 27.4,26.8 27.5,26.5 C27.5,26.2 27.4,26 27.2,26 L26.9,26 C26.8,26 26.6,26.2 26.6,26.2 C26.7,26.1 26.6,26 26.6,26 C26.8,26.1 27.5,25.8 27.3,25 C27.3,24.8 27.2,24.8 27.2,24.7 L27.2,24.3 C27.2,24.2 27.3,23.9 27.2,23.7 C27.2,23.6 27,23.6 26.9,23.6 C26.6,23.7 26.6,24.2 26.6,24.3 C26.6,24.3 26.6,24.3 26.5,24.3 C26.4,24.3 26.4,24.2 26.4,24.2 C26.4,24.2 26.2,24 26.2,23.9 C26.1,23.8 25.7,23.4 25.6,23.2 C25.4,23 25.3,23.2 25.3,23.3 C25.3,23.4 25.6,23.9 25.6,23.9 C25.9,24.3 26,24.3 26,24.3 L25.9,24.4 C25.9,24.4 25.9,24.4 25.5,23.9 C25.5,23.9 25.1,23.3 24.9,23.2 C24.8,23 24.6,23.2 24.6,23.3 C24.5,23.5 25.1,24.2 25.1,24.2 C25.4,24.6 25.6,24.7 25.6,24.7 L25.5,24.8 C25.6,24.8 25,24.2 25,24.2 C24.8,24 24.6,23.7 24.5,23.6 C24.3,23.5 24.2,23.8 24.3,23.9 C24.3,24 24.4,24.1 24.6,24.3 C24.7,24.5 25.2,24.9 25.2,24.9 L25.2,24.9 C25.1,24.7 24.7,24.4 24.4,24.2 C24.1,24 24.1,24.3 24.1,24.4 C24.2,24.5 24.4,24.9 24.5,24.9 C24.6,25 25.1,25.3 25.1,25.4 C25.2,25.5 25.3,25.7 25.3,25.7 C25.4,25.8 25.5,26 25.7,26.1 C25.7,26.1 25.9,26.2 26.1,26.2 C26.2,26.7 26.3,27.1 26.6,27.2" id="Shape"></path>
            <path d="M33.5,34.8 C33.5,34.8 32.9,35.2 32,34.7 C31.1,34.2 30.8,33.9 30.7,33.9 C30.7,33.9 31.6,34.3 32.2,34.2 C32.8,34.1 33,34 33.6,34 C33.6,34 32.7,34.3 32.8,34.7 C32.7,34.9 33.1,34.9 33.5,34.8 L33.5,34.8 Z M27.2,32.6 L27.5,32.6 C27.5,32.6 27.9,32.4 28,32.4 C28.2,32.3 28.2,32.4 28.2,32.2 C28.2,32.5 28.4,32.6 28.7,32.6 C29,32.6 29.2,32.4 29.5,32.4 L29.8,32.4 C29.8,32.5 29.9,32.6 29.9,32.6 C30.2,32.8 30.3,32.5 30.2,32.3 C30.2,32.3 30.3,32.5 30.6,32.5 C30.9,32.5 31.5,32.3 31.8,32.2 C32.1,32.1 32.8,31.8 32.9,31.6 C33,31.4 32.6,30.9 32.5,30.5 C32.4,30.4 32.4,30.3 32.4,30.1 C32.5,30.3 32.6,30.6 32.8,30.9 C32.8,31 32.9,31 32.9,31.1 C33,31.3 33.2,31.6 33.3,31.8 C33.4,32.1 33.6,32.3 33.7,32.4 C34,32.7 34.3,32.9 34.4,33.2 C34.1,32.8 33.8,31.4 33.7,30.9 C33.5,30.4 33,29.4 32.9,29.2 C32.8,29 32.5,28.1 32.5,27.9 L32.5,27.1 C32.5,27.1 33.1,28.8 33.1,29.1 C33.2,29.3 33.8,31.2 33.9,31.5 C34,31.8 34.8,33.9 35,34.1 C35.1,34.1 35.2,34.3 35.4,34.5 C35.6,34.8 35.8,35 36.1,35.4 C35.9,35.1 35.6,35 35.6,35 C35.4,34.8 35.4,34.7 35.4,34.6 C35.4,34.3 35.1,34.1 35.1,34.1 C35,34 34.9,33.9 34.8,33.7 C34.7,33.6 34.6,33.4 34.5,33.2 C34.5,33.2 33.9,32.7 33.6,32.5 C33.2,32.3 33,32.2 32.7,32.3 C31.8,32.7 30.9,32.7 30.9,32.7 C30.1,32.6 30.6,32.9 30.6,32.9 C31,33 31,33.1 32,33.2 C33,33.2 33.1,33.3 33.6,33.4 C34.1,33.5 34.4,33.8 34.4,33.8 C33.9,33.6 33.5,33.6 32.8,33.7 C31.7,33.9 30.6,33 30.6,33 C29.9,32.7 30,33.1 30.1,33.2 C30.2,33.4 30.4,33.4 30.4,33.4 C29.9,33.2 30.1,33.6 30.1,33.6 C30.4,33.8 30.6,34 30.6,34 C31.9,35.2 32.9,35.4 33.4,35.3 C33.5,35.3 33.7,35.2 33.7,35.2 C33.5,35.3 33.4,35.4 33.3,35.4 C33,35.6 32.3,35.8 31.8,35.8 C31.1,35.9 30.4,35.7 30.2,35.6 C30.1,35.5 30,35.1 30.3,35 C30.7,34.9 30.8,34.7 30.8,34.5 C30.8,34.3 30.4,33.9 30.4,33.9 C29.8,33.6 29.6,33.8 29.6,33.8 L29.8,32.6 L29.7,32.6 L29.3,32.6 L29,32.6 L28.7,32.6 C28.7,32.6 28.7,32.6 28.6,32.6 L28.1,32.6 L28.1,32.4 L28.1,32.4 C28,32.4 27.9,32.3 27.9,32.3 L27.7,32.3 C27.6,32.3 27.4,32.4 27.4,32.4 L27.2,32.6 L27.2,32.6 Z M32,28.8 C32.1,29 32.1,29.5 32.2,29.9 C32.1,30 31.9,30.2 31.7,30.3 C32.2,29.9 32.1,29 32,28.8 L32,28.8 Z M31.9,26.1 C32.5,26.2 32.7,26.2 32.9,26.1 C32.8,26.3 32.4,26.3 32.4,26.3 C32.5,26.3 32.7,26.5 32.8,26.7 C33,27 32.5,26.8 32.5,26.8 C32.4,26.4 31.9,26.1 31.9,26.1 L31.9,26.1 Z M35.9,38.3 C35.8,37.4 35.8,37.2 35.5,36.8 C35.5,36.8 36.1,37.4 36.2,38.5 C36.2,39.6 36.1,42.5 36.1,43.3 C36.1,43.3 35.6,43.9 35.3,42.9 C35.3,42.9 35.6,43.1 35.8,42.3 C35.8,41.3 36.1,39.1 35.9,38.3 L35.9,38.3 Z M33.6,42.5 C33.7,42.3 33.7,39.4 33.7,39.4 C33.8,40.5 34.2,42.9 34.2,42.9 C33.7,43 33.5,42.8 33.6,42.5 L33.6,42.5 Z M33,37.5 C33,37.3 33,37.2 32.9,37.2 C32.9,37.2 32.6,37.5 32.4,38 C32.2,38.5 32.1,38.9 31.6,40.1 C30.8,42.1 30.2,42.5 30.2,42.5 C30.3,42.1 30,41.5 30,41.5 C30.7,40.7 32.8,36.8 33.2,36.4 C33.5,36 33.6,36.2 33.6,36.2 C33.3,36.4 33.1,36.9 33,37.5 L33,37.5 Z M30.3,38.3 C30.2,37.7 29.4,36.4 29.9,36.3 C30.1,36.3 31.2,37.2 31.7,37.2 C32.2,37.2 32.3,37 32.4,36.8 C32.8,36.1 33,36 33,36 C32.9,36.2 32.8,36.4 32.5,36.8 C32.3,37.1 32.1,37.5 31.9,38 C31.3,39.2 30.1,40.9 30.1,40.9 C30.3,40.3 30.4,38.6 30.3,38.3 L30.3,38.3 Z M25.8,42.3 C25.7,42.6 25.7,43 25.7,43.1 C25.5,44.5 25.8,45 25.8,45 C25.8,45 26.3,44.6 26.5,43.2 C26.6,42.5 27.1,39.9 27.5,37.6 C27.4,36.5 27.3,35.4 27.6,35.2 C27.8,35 28.1,34.8 28,34.9 C28.2,34 28.3,33.4 28.3,33.4 L29.6,33.9 C29.1,34.1 28.7,34.4 28.3,34.7 C27.5,35.9 27.8,37.4 27.9,38 C28,38.6 27.7,39.5 27.7,39.5 C27.8,41 28.1,41.8 28.1,41.8 C28.1,41.8 28.4,42.6 29,42.8 C29,42.8 28.4,42.7 28.3,42.5 C28.3,42.5 28.1,42.6 28.1,42.8 C28.1,42.8 27.5,43.2 27.7,43.5 C27.5,43.7 27.5,43.7 27.2,43.9 C27,44.1 26.9,44.1 26.5,44.3 C26.4,44.4 26.2,44.5 26.1,44.6 C26.1,44.7 26.1,44.7 26.2,44.7 C26.3,44.6 26.4,44.5 26.4,44.5 C26.2,44.6 26.2,44.7 26.3,44.7 L26.3,44.7 C26.3,44.7 26.4,44.7 26.5,44.6 C26.5,44.5 26.6,44.5 26.7,44.4 C26.7,44.4 26.4,44.5 26.5,44.7 C26.7,44.8 26.8,44.5 26.8,44.5 C26.9,44.4 27,44.4 27.2,44.3 C26.8,44.4 26.8,44.5 26.9,44.7 C27,44.8 27.2,44.8 27.5,44.7 C27.9,44.7 28.4,44.4 28.7,44.4 C28.8,44.4 28.8,44.4 29,44.5 C29.1,44.5 29.5,44.5 29.5,44.4 C29.7,44 29,43.5 28.8,43.4 C28.7,43.3 28.4,43.1 28.4,43.1 C28.4,43.1 28.8,43.3 29.2,43.5 C29.5,43.6 29.6,43.6 29.7,43.6 C30.2,43.7 30.4,43.4 30.9,43.4 C32,42.4 32.2,41.9 32.6,40.3 C32.7,39.7 33,38.7 33.1,38 L33.1,39.6 C33.1,40.2 33.2,42.2 33.1,42.5 C33.1,42.8 32.9,42.9 32.9,42.9 C32.9,42.9 33.2,43.6 33.8,43.7 C34,43.7 34.1,43.7 34.3,43.6 C34.3,43.6 34.9,44.1 35.9,43.8 C36,43.7 36.2,43.7 36.4,43.6 C36.5,43.5 36.5,38.5 36.5,37.8 C36.5,37.3 36.4,37.2 36.3,37 C36.1,36.6 35.8,36.3 35.8,36.3 C35.8,36.3 35.6,36.2 35.6,35.9 C35.6,35.4 35.7,35.4 35.9,35.7 C36.2,36.1 36.2,36.5 36.3,37.1 C36.3,37.1 36.5,37.3 36.7,37.7 C36.8,37.9 36.8,38.3 36.8,38.6 L36.8,43.5 C36.9,43.3 37,43.2 37,43.2 C37,43.2 37,37.7 36.9,36.5 C36.9,36.2 36.7,36.1 36.7,35.8 C36.6,35 36.6,34.8 36.4,34.5 C36.4,34.5 36.6,34.7 36.9,35.2 C37,35.6 37.2,36.1 37.3,36.8 C37.4,37.2 37.5,37.9 37.5,37.9 C37.6,36 37.3,35.3 37.3,35.3 C37.2,35 37,34.5 36.8,34.2 C36.6,33.9 36.4,33.6 36.3,33.5 C35.5,32.2 35.4,31.8 34.6,30.3 C33.8,28.8 34,27.5 34,27.5 C34,27.5 34.2,28.1 34.3,28.2 C34.4,28.3 34.5,28.6 34.5,29.1 C34.5,29.2 34.5,29.7 34.9,30.5 C35.4,31.5 35.8,32.3 36.1,32.6 C36.4,32.9 36.5,32.9 36.5,32.9 C36.4,31.7 35.3,27.9 35.3,27.9 C35.3,27.9 35.7,28.1 35.9,28.8 C36,29 36.1,29.8 36.3,30.6 C36.6,31.7 37.4,34.6 37.4,34.7 C37.1,32.8 37.2,32.8 37,32 C36.9,31.5 36.9,30.9 36.8,30.2 C36.7,29.2 36.6,28.9 36.6,28.7 C36.5,26.8 35.9,26.7 35.9,26.7 C36.2,26 35.8,25.8 35.8,25.8 C35.6,25.7 35.3,25.6 35.2,25.6 C34.9,25.8 35,25.4 34.8,25.5 C34.6,25.6 34.3,25.7 34.3,25.7 C35,25.1 34.7,25 34.7,25 C34,25.9 33.1,25.8 33.1,25.8 L32.4,25.8 C32.3,25.8 32.2,25.9 32.2,26 C32.2,26 32.2,26 32.1,25.9 C32.2,25.8 32.2,25.7 32.1,25.6 C32,25.6 32,25.5 32,25.5 C32,25.5 31.9,25.2 32,25 C32.1,24.9 32.2,24.8 32.2,24.6 C32,24.6 31.7,24.7 31.6,24.8 C31.5,24.9 31.4,25 31.3,25.2 C31.2,25.3 31.1,25.5 31,25.7 C30.9,25.9 31.2,26.1 31.2,26.1 C31.2,26.1 30.6,26 31,25.5 C30.9,25.6 30.7,25.6 30.6,25.8 C30,25.7 30,26 29.9,26.1 C29.8,26.3 29.7,26.6 29.6,26.7 C29.5,26.8 29.2,27.3 29.3,27.5 C29.4,27.4 29.7,27.2 29.7,27.2 C29.8,27.2 29.9,27.1 30.1,27.2 C30.2,27.2 30.2,27.2 30.5,27 C30.7,26.8 30.8,26.5 31.1,26.3 C31.3,26.2 31.5,26.1 31.7,26 C31.7,26.1 31.8,26.1 31.8,26.1 L31.9,26.1 C31.9,26.3 31.8,26.7 31.8,27 L31.8,27.5 C31.9,28.1 32,28.4 32.1,28.7 C32.1,28.7 31.7,28.1 31.7,27.7 C31.7,27.7 31.7,29.8 31.9,30.2 C31.8,30.3 31.6,30.4 31.6,30.4 L31.5,30.4 L31.3,30.6 C31.3,30.6 31.3,30.6 31.2,30.6 C31,30.7 30.7,30.9 30.6,30.9 L30.3,30.9 C30.2,30.9 30.1,31 30,31.1 C30,31.1 29.6,31.2 29.5,31.1 C29.4,31.1 29.2,30.9 29,30.8 C28.9,30.7 28.8,30.7 28.8,30.6 C29,30.5 29.1,30.4 29.2,30.3 C29.2,30.2 29.2,30.1 29.1,30 L29.1,30 L28.5,29.7 C29,29.6 29,29.8 29.3,29.6 C29.5,29.4 29.9,29.1 30.2,28.8 C30.5,28.6 30.4,28.1 30.5,27.8 C30.5,26.7 29.5,27.3 29.5,27.3 L29.4,27.6 C29.4,27.7 29.2,27.7 29.2,27.7 C30,28.2 29.5,28.8 29.5,28.8 C29.5,28.8 29.8,28.2 29.2,28 C28.4,27.8 28.2,27.1 28.1,26.9 C27.9,26.6 27.6,27 27.4,27 C27.3,27 27.2,27.1 26.9,27 C26.7,27 26.6,26.8 26.5,26.7 C26.4,26.6 26.4,26.4 26.4,26.4 C26.4,26.4 26.2,26.6 26.4,26.9 C26.6,27.2 26.7,27.7 26.8,27.9 C26.9,28.1 27,28.6 27.9,29.7 C27.9,29.7 27.9,29.7 28,29.8 C27.9,29.9 27.8,29.9 27.8,30.1 C27.8,30.3 27.9,30.4 28.1,30.6 L28.1,30.6 C27.9,30.7 27.7,30.8 27.6,30.8 C27.4,30.9 27.3,31 27.3,31.1 C27.3,31.2 27.4,31.3 27.6,31.1 C27.6,31.1 28,30.9 28.1,30.9 L28.3,30.9 C28.3,30.9 27.6,31.2 27.5,31.3 C27.4,31.4 27.3,31.4 27.3,31.6 C27.3,31.7 27.4,31.7 27.5,31.7 C27.6,31.7 28,31.5 28.1,31.5 C28.3,31.4 28.2,31.5 28.3,31.5 C28.3,31.5 27.5,31.8 27.5,31.9 C27.4,31.9 27.4,32 27.4,32.1 C27.4,32.2 27.5,32.2 27.6,32.2 C27.7,32.2 28,32 28.1,32 L28.3,32 L27.6,32.3 C27.6,32.3 27.6,32.3 27.6,32.4 L26.4,32 L26.2,33.2 L27.8,33.2 C27.8,33.2 27.2,36.9 26.6,39.8 C26.4,40.6 26.4,41.3 25.8,42.3 L25.8,42.3 Z" id="Shape"></path>
            <path d="M17.8,28 C17.8,28 17.9,28.9 18.2,29.1 C18.6,29.3 18.8,29.7 19.3,29.5 C19.3,29.5 21.1,27.8 21.1,27.1 C20.9,26.9 20.8,26.7 20.8,26.7 C20.9,27 21.2,27.2 21.4,27 C21.8,26.6 21.8,26.5 21.8,26.5 C22.1,26.6 22.4,26.2 22.4,26.1 C22.4,26 22.3,25.9 22.3,25.9 C22.6,26.1 22.7,25.7 22.7,25.7 L22.9,25.5 L22.9,25.4 C23.3,25.5 23.7,25.2 23.7,25.2 L23.7,25.1 C23.7,25 23.5,25 23.5,25 L22.4,25.1 C22.2,25.2 22.3,25.4 22.3,25.5 C22.3,25.7 22.2,25.7 22.2,25.7 C22.3,25.5 22.2,25.5 22.2,25.3 C22.1,25.2 22,25.2 22.1,25.1 C22.1,25 22.2,24.9 22.5,24.9 C22.7,24.9 22.9,24.5 22.9,24.3 C22.9,24.2 22.9,24.2 22.8,24.2 C22.7,24.2 22.4,24.3 22.3,24.4 C22.2,24.5 21.8,24.5 21.8,24.5 C21.8,24.5 21.9,24.5 22.1,24.4 C22.3,24.3 22.6,24.1 22.6,24.1 C22.7,24.1 23,24 23.1,24 C23.6,23.8 23.4,23.6 23.3,23.6 C23.2,23.6 22.7,23.7 22.6,23.7 C22.5,23.7 21.5,24.2 21.4,24.2 C21.3,24.3 21,25 20.9,25.1 C20.9,25.2 20.7,25.6 20.7,25.6 C20.4,25.5 20.3,25.8 20.2,25.9 C20.1,26 19.5,26.7 19.5,26.8 C19.4,26.9 18.7,27.4 18.7,27.4 C18.5,27.7 18.6,28 18.6,28 C18.6,28 18.4,27.8 18.5,27.5 C18.5,27.5 18.6,27.3 18.5,27.2 C18.5,27.1 18.4,27 18.4,27 C18.4,26.9 18.3,26.9 18.3,26.9 C18.3,27 17.7,26.6 17.8,28" id="Shape"></path>
            <path d="M21.2,31.2 C21.2,31.4 21.2,31.6 21.3,31.9 C20.7,32 20.1,32.1 19.6,32.2 C19.4,32.4 19,32.6 18.6,32.8 L18.6,32.8 C18.6,33 18.7,33.1 18.7,33.1 C18.7,33.1 20,33.1 21.4,33 C21.5,33.7 21.5,34.4 21.6,35.1 L21.6,35.1 C21.7,35.3 21.8,36.5 21.7,36.6 L21.7,36.6 L21.7,36.6 L21.7,36.6 C20.5,34.8 18.7,34.1 17.6,33.9 C17.3,33.9 17.1,33.9 17.1,34.3 C17.1,34.3 17,35 17.1,35.4 C17.1,35.7 17.3,36.2 17.5,36.3 C17.7,36.4 17.9,36.3 17.9,36.3 C17.8,36.3 17.7,36.4 17.6,36.5 C17.5,36.6 17.2,36.7 17.1,36.9 C17,37.1 17.5,37 17.5,37 C17.5,37.1 17.8,37.1 17.8,37.1 C17.8,37.1 17.8,37.4 18.6,37 C19,36.8 19.2,36.6 19.6,36.5 C19.5,36.5 19.3,36.7 19.2,36.8 C18.9,37 18.8,37.2 18.5,37.4 C18.3,37.6 17.5,37.9 17,38 C17.1,38.1 17.3,38 17.3,38 C17.3,39.3 19.3,38.2 19.3,38.2 C17.7,39.5 17,38.2 16.6,38.8 C18.5,40.1 20.5,37.8 21,37.4 C21.5,36.9 22.1,37 22.1,37 C22.1,37 22.1,37.5 22,38.1 L22,38.1 C22.2,40 22.3,41.6 22.3,41.8 C22.4,42.4 22.4,42.7 22.1,42.8 C21.8,43 21.6,42.9 21.3,42.7 C21.1,42.6 20.9,42.4 20.8,42.2 L20.8,42.2 L20.8,42.2 C20.6,42 20.4,41.7 20.3,41.5 C20.6,41.7 20.8,41.7 20.9,41.7 L20.9,41.7 C21,41.7 21,41.6 21,41.6 L21.1,41.5 L21,41.2 C21,41.2 21,41.2 20.9,41.2 L20.9,41.2 L20.9,41.2 C20,40.6 19.8,39.5 19.7,39.1 C19.7,39.4 19.9,39.9 20.4,40.2 C21.3,39 21.6,38.2 21.2,37.7 C21,37.5 20.2,37.9 19.7,38.2 C19.3,38.4 19,38.7 18.4,39.2 L17,40.6 C17,40.6 18.1,39.1 17.5,39.2 C17.1,39.4 16.9,40 16.6,40.5 C16.3,41 16.4,41.1 15.9,41.4 C15.9,42.5 17.9,41.3 18.6,40.5 C19,40.1 19.2,39.9 19.3,39.6 L19.3,39.7 C19.2,39.9 19.2,40.2 19.2,40.4 C18.9,40.6 19,40.6 18.8,40.7 C18.8,40.7 18.8,40.7 18.7,40.8 C18.2,41 17,42 16,42.4 C15.5,42.6 16,43.4 16,43.4 C15.9,43.9 16.7,44.5 16.7,44.5 C16.7,44.5 17.1,44.6 17.4,44.4 C17.8,44.5 18.4,44.3 18.9,44 C19.6,43.6 20.3,43.1 20.3,43.1 C20.1,42.9 19.9,42.8 19.8,42.8 C19.8,42.8 19.6,42.7 19.2,42.8 C18.8,42.9 18.3,43.1 17.5,43.6 C17.5,43.6 18.3,42.9 19,42.1 C19.2,41.9 19,41.4 19,40.9 C19,41.7 19.4,42.3 19.5,42.3 L19.7,42.5 L19.7,42.2 L19.7,41.4 C19.9,42.1 20.2,42.6 20.4,42.9 L20.4,42.9 L20.4,42.9 C20.6,43.2 20.8,43.4 21,43.5 C21.4,43.8 22.1,44.3 22.6,44.6 L22.6,44.6 L22.6,44.6 C22.9,44.8 23.1,44.9 23.1,44.9 L23.2,44.9 L23.2,44.9 C23.2,44.9 24.3,43.7 24.9,43 C25.1,42.7 25.6,42.2 25.7,40.7 C25.8,40.9 25.9,41.2 25.9,41.4 L25.9,41.6 C25.9,41.6 25.9,41.6 25.9,41.7 L25.9,41.6 L25.9,41.7 L26,41.4 C26,41.4 26.3,40.8 26.1,40 C26,39.4 25.8,38.8 25.1,38.2 L25,38.1 L25,38.3 C25,38.3 25.3,39.8 24.3,40.8 L24.2,40.9 L24.3,40.9 C24.3,40.9 24.7,41 25.1,40.6 C25,40.9 24.8,41.5 24.4,41.9 C24.1,42.2 24,42.2 23.6,42.2 C23.4,42.1 23.3,41.9 23.2,41.3 C23.1,40.9 22.4,35.9 22,32.6 C23.4,32.4 24.7,32.1 24.7,32.1 C24.8,32.1 24.8,31.9 24.8,31.8 C24.8,31.6 24.7,31.5 24.7,31.5 C24.7,31.5 23.3,31.5 21.9,31.6 C21.9,31.4 21.8,31.2 21.8,31 L21.9,31 L21.4,31 C21.4,31.1 21.3,31.1 21.2,31.2" id="Shape"></path>
            <path d="M13.2,43.1 C13.3,42.8 13.3,41.8 13.3,41.8 C13.3,42 13.3,42.6 12.9,43.2 C12.8,43.4 12.6,44.3 12.6,44.3 C12.6,44.3 12.7,44.5 13.1,44.4 C12.9,43.8 13,43.5 13.2,43.1" id="Shape"></path>
            <path d="M19.2,30.4 C19.2,30.4 18.4,30.7 18.1,30.9 C17.6,31.2 17.4,31.7 17.4,31.9 C17.4,32.2 17.3,32.6 18.1,32.3 C19.6,31.8 19.5,31.7 19.5,31.7 C19.3,31.5 19.5,30.5 19.5,30.5 C19.5,30.3 19.2,30.4 19.2,30.4" id="Shape"></path>
            <polygon id="Shape" points="29.8 7.7 33.6 7.7 33.6 7.7 32.7 11.4 32.7 11.4 32.7 11.4 32.7 11.4 32.7 11.4 35.1 8.5 35.1 8.5 37.4 11.4 36.6 7.7 36.6 7.7 40.4 7.7 37 6.1 39.3 3.1 35.9 4.8 35.1 1.1 34.3 4.8 30.9 3.1 30.8 3.1 33.2 6.1 33.2 6.1"></polygon>
            <path d="M33.6,57.7 C31.2,59.6 28.1,60.7 24.6,60.7 C21.2,60.7 18,59.6 15.6,57.7 C13.2,59.6 10.1,60.7 6.6,60.7 L5.9,60.7 C6.8,61.7 7.7,62.6 8.7,63.5 C11.3,63.2 13.7,62.1 15.6,60.6 C18,62.5 21.2,63.6 24.6,63.6 C28,63.6 31.2,62.5 33.6,60.6 C35.5,62.1 37.9,63.1 40.5,63.5 C41.5,62.7 42.4,61.7 43.3,60.7 L42.6,60.7 C39.2,60.7 36,59.6 33.6,57.7" id="Shape"></path>
            <path d="M17.6,21.7 C17.5,21.7 17.4,21.6 17.3,21.6 L16.9,21.6 C16.9,21.6 17.1,21.6 17.2,21.5 C17.3,21.4 17.6,21.3 17.9,21.5 C17.9,21.6 17.8,21.7 17.6,21.7 M17.5,21.9 C17.4,21.9 17.4,22 17.3,21.9 C17.2,21.9 17.3,21.8 17.1,21.7 C17.1,21.7 17.1,21.7 17.3,21.6 C17.5,21.5 17.6,21.6 17.6,21.6 C17.6,21.6 17.6,21.9 17.5,21.9 M17.3,20.6 C17.3,20.6 17.1,20.7 16.9,20.7 C16.9,20.7 16.6,20.9 16.5,21.2 C16.5,21.3 16.4,21.4 16.4,21.5 C16.3,21.6 16.2,21.6 16.2,21.6 L16.2,21.8 C16.1,21.9 16.1,22.1 16,22.1 C15.9,22.2 15.9,22.4 15.9,22.4 C16,22.5 15.9,22.5 15.9,22.6 L15.9,23 C15.9,23.2 15.9,23.3 15.8,23.4 C15.7,23.5 15.8,23.6 15.8,23.6 L15.7,23.7 C15.9,24.1 16.3,24 16.5,24 L16.9,24 C17,24 17.3,24.1 17.4,24.1 C17.8,24 17.7,23.7 17.6,23.6 C17.6,23.5 17.4,23.3 17.4,23.3 C17.4,23.3 17.6,23.4 17.7,23.4 L17.7,23.3 L17.6,23.3 L17.3,23.3 C17.3,23.3 17.6,23.2 17.9,23.3 L17.9,23 C18.4,23 18.3,22.7 18.2,22.6 C18.2,22.5 18.1,22.3 18,22.2 C18,22.1 17.9,22 17.9,21.9 L17.9,21.7 C17.8,21.4 17.9,20.9 17.9,20.9 C17.8,20.9 17.7,20.8 17.7,20.8 C17.7,20.8 17.5,20.7 17.3,20.6" id="Shape"></path>
            <path d="M33.6,52 C31.2,53.9 28.1,55 24.6,55 C21.2,55 18,53.9 15.6,52 C13.2,53.9 10.1,55 6.6,55 C4.9,55 3.3,54.7 1.8,54.2 L1.8,54.2 C2.3,55.4 2.9,56.5 3.5,57.5 C4.5,57.7 5.5,57.8 6.5,57.8 C9.9,57.8 13.1,56.7 15.5,54.8 C17.9,56.7 21.1,57.8 24.5,57.8 C27.9,57.8 31.1,56.7 33.5,54.8 C35.9,56.7 39.1,57.8 42.5,57.8 C43.6,57.8 44.5,57.7 45.5,57.5 C46.2,56.4 46.7,55.3 47.2,54.2 C45.7,54.7 44.1,55 42.4,55 C39.2,55 36,53.9 33.6,52" id="Shape"></path>
            <path d="M14.4,23.1 L14.4,22.9 C14.4,22.7 14.6,22.5 14.6,22.5 C14.4,23.3 14.7,23.6 14.7,23.6 C14.7,23.6 14.6,23.3 14.8,23 C14.8,23 14.7,23.3 14.8,23.3 C14.8,23.3 14.8,23.1 15,22.9 C15.1,22.7 15.2,22.7 15.2,22.5 C15.2,22.3 15.3,22.2 15.3,22.1 C15.3,22.1 15.2,22.2 15.2,22.5 L15.2,22.8 C15.1,23 15,23.5 15.3,23.7 C15.3,23.7 15.1,23.3 15.3,23.1 C15.3,23.1 15.3,23.5 15.5,23.6 C15.5,23.6 15.4,23.3 15.5,23.1 C15.6,22.9 15.6,22.8 15.6,22.7 C15.6,22.7 15.7,23 15.6,23.1 C15.5,23.2 15.6,23.4 15.7,23.5 C15.7,23.5 15.6,23.4 15.8,23.2 C15.9,23 16,22.8 16,22.6 C15.9,22.4 15.8,22.2 16.1,21.8 L16.1,22.3 L16.1,22.1 C16.2,21.9 16.2,21.9 16.2,21.7 C16.2,21.5 16.3,21.4 16.3,21.4 C16.3,21.4 16.3,21.4 16.3,21.5 L16.3,21.6 L16.3,21.8 C16.4,21.7 16.3,21.5 16.3,21.4 C16.3,21.2 16.4,21.1 16.4,21.1 L16.4,21.4 L16.4,21.7 C16.4,21.7 16.5,21.7 16.5,21.4 C16.5,21.2 16.6,21.1 16.6,21 C16.7,21.1 16.6,21.4 16.6,21.4 C16.8,21.2 16.7,21.1 16.7,20.9 C16.7,20.7 16.8,20.6 16.8,20.6 C16.7,20.7 16.8,20.8 16.8,20.8 C16.9,20.8 17,20.7 17,20.7 C17,20.7 17.3,20.6 17.3,20.4 C17.3,20.4 17.4,20.7 17.6,20.4 C17.6,20.4 17.6,20.5 17.7,20.5 C17.9,20.6 17.8,20.2 17.8,20.2 C17.8,20.2 17.9,20.2 17.9,20.3 C18,20.5 18,20.2 18,20.2 C17.8,19.9 17.2,19.8 16.9,19.7 C16.6,19.7 16.3,19.6 15.9,19.7 C15.4,19.7 15.2,19.9 15,20.1 C14.8,20.3 14.6,20.7 14.4,21.5 C14.2,22.4 14,23.1 14,23.2 C13.8,23.9 14.4,23.6 14.4,23.1" id="Shape"></path>
            <path d="M19.4,33.3 C18.7,33 18.2,32.8 18.2,32.8 C17.2,33 17.8,33.4 18,33.5 C18.5,33.7 19.1,34 19.9,34.5 C20.6,35 21.7,35.6 21.7,35 C21.2,34.3 20.2,33.7 19.4,33.3" id="Shape"></path>
            <path d="M12.7,10.7 C11.6,10.7 10.6,10.3 9.8,9.6 C10.7,10.7 12.1,11.5 13.7,11.5 C16.4,11.5 18.7,9.3 18.7,6.5 C18.7,3.7 16.5,1.5 13.7,1.5 C12.1,1.5 10.7,2.2 9.8,3.4 C10.6,2.7 11.6,2.3 12.7,2.3 C15,2.3 16.9,4.2 16.9,6.5 C16.9,8.8 15,10.7 12.7,10.7" id="Shape"></path>
            <path d="M14.6,25.7 C14.6,25.7 14.5,25.6 14.3,25.6 C14.1,25.5 13.9,25.4 13.8,25.2 C13.7,25 13.9,24.8 14,24.7 C13.9,24.6 13.6,25 14.6,25.7 M15.4,29.4 C15.7,30.2 16.3,30 16.3,30 C15.2,30.5 14.7,32.5 14.7,32.5 C14.9,30.9 15.6,30.4 15.4,29.4 M14.1,24.8 C14.1,24.5 14.3,24.4 14.5,24.3 C14.5,24.3 14.3,24.3 14,24.6 C13.9,24.7 13.7,24.8 13.6,25 C13.3,25.4 12.8,26 12.6,26.7 C12.2,28 12.2,28.5 12.2,29.3 C12.2,29.8 12,31.4 12,32.5 C12,33.2 11.9,33.7 11.9,34 C11.9,34.3 11.8,43.9 11.8,43.9 L12,41.7 L12.5,36.4 C12.5,36.4 12.7,34.4 12.8,33.1 C12.9,31.8 13,29.4 13,29 C13,28.6 13.2,27.7 13.4,27.5 L13.1,35.5 C13.1,35.5 13.2,37.2 13.2,37.9 C13.2,37.9 13.1,41.8 13.1,42 L13.6,44.7 C13.8,44.8 14,44.8 14.3,44.6 L14,43.8 L13.6,41.4 C13.6,41.4 13.7,41.4 13.8,41.3 C13.9,41.2 14,40.9 14,40.9 C14,40.1 14.8,35.5 15.1,34.7 C15.4,33.9 15.5,31.8 17.5,30.6 C17.5,30.6 17.3,30.4 16.9,30.3 C16.5,30.2 16.6,30.2 16.6,30.2 C16.8,30 16.3,29.4 16.3,29.4 C15.8,28.6 15.5,28.5 15.2,28 C14.7,27.4 15.2,27.2 15.2,27.2 C15.3,27.6 15.4,27.8 15.6,28.1 C15.8,28.4 16.3,29.4 16.3,29.4 C16.3,29.4 16.5,28 15.5,26.8 C15.3,26.5 15,26.3 14.8,26.1 C14.7,26 14.6,25.9 14.6,25.9 C14.5,25.8 14.3,25.6 14.2,25.5 L14.2,25.4 C14.3,25.5 14.4,25.6 14.6,25.6 C15.4,25.9 16.2,26.1 16.6,25.8 C16.7,25.7 16.7,25.4 16.7,25.3 C16.6,25.2 16.5,25.1 16.6,24.8 C16.6,24.7 16.7,24.6 16.4,24.6 C16.1,24.6 15.9,24.4 15.8,24.3 C15.8,24.2 15.7,24.1 15.7,24.1 L15.5,24.1 C15.5,24.1 15.4,24.3 15.3,24.2 C15.3,24.2 15.1,24.3 14.9,24.2 L14.6,24.3 C14.6,24.5 14.5,24.8 14.5,24.8 C14.5,24.8 14.2,24.7 14.1,24.8" id="Shape"></path>
            <path d="M24.7,66.4 C21.3,66.4 18.1,65.3 15.7,63.4 C14.5,64.3 13.2,65 11.7,65.5 L11.7,65.5 C12.6,66.1 13.6,66.6 14.5,67 C14.9,66.8 15.3,66.5 15.6,66.2 C18,68.1 21.2,69.1 24.6,69.1 C28,69.1 31.2,68 33.6,66.2 C34,66.5 34.3,66.7 34.7,67 C35.7,66.6 36.6,66.1 37.5,65.5 C36,65 34.7,64.3 33.5,63.4 C31.2,65.3 28.1,66.4 24.7,66.4" id="Shape"></path>
            <path d="M31.9,21.2 C31.8,21.2 31.5,21.3 31.2,21.2 C30.9,21.2 30.6,20.9 30.6,20.9 C30.6,20.8 30.6,20.8 30.7,20.8 C30.8,20.8 30.8,20.9 30.8,21 C30.8,21.1 31,21.2 31.2,21.2 C31.2,21.1 31.1,21 31.1,21 L31.3,21.2 C32,21.4 31.6,21 31.6,21 C32.1,21.2 32,21.5 32.1,21.8 C32,21.7 32,21.6 32,21.5 C32,21.2 31.9,21.2 31.9,21.2 M30.9,21.8 C30.8,21.8 30.7,21.7 30.7,21.7 C30.9,21.6 31.2,21.5 31.3,21.5 C31.6,21.5 31.7,21.7 31.7,21.7 C31.3,21.5 31,21.8 30.9,21.8 M31.5,21.8 C31.4,21.9 31.5,22 31.3,22 C31.1,22 31.1,21.8 31.1,21.8 C31.1,21.8 31.3,21.7 31.5,21.7 C31.7,21.7 31.7,21.8 31.7,21.8 L31.5,21.8 M32.9,23.3 C32.8,23.2 32.8,22.8 32.8,22.6 C32.8,22.5 32.6,22.3 32.5,22.1 C32.5,22.1 32.6,22.3 32.9,22.4 C33.1,22.5 33.3,22.8 33.3,22.9 C33.3,22.9 33.2,22.8 33.1,22.8 C32.9,22.8 32.8,23.1 32.9,23.3 C33.1,23.6 33.2,23.2 33.2,23.2 C33.2,23.2 33.3,23.3 33.2,23.4 C33.2,23.4 33.3,23.6 33.5,23.4 C33.6,23.3 33.6,22.8 33.1,22.4 C32.6,22 32.6,21.8 32.6,21.8 C32.6,21.8 32.7,22 33,22.1 C33.3,22.2 33.4,22.4 33.5,22.6 C33.5,22.6 33.5,22.5 33.2,22.5 C33.2,22.5 33.8,23.1 33.6,23.5 C33.6,23.5 33.8,23.3 33.7,22.9 C33.7,22.9 33.9,23.1 33.9,23.2 C33.9,23.2 34.1,22.9 33.7,22.5 C33.5,22.3 33.5,22.2 33.5,22.1 C33.5,22 33.4,22 33.3,21.8 C33.2,21.7 33.2,21.5 33.1,21.3 C33.1,21.3 33.1,21.4 33.3,21.5 C33.3,21.5 33.4,21.1 33.2,20.9 C33.2,20.9 33.4,21.1 33.4,21.2 C33.4,21.4 33.5,21.5 33.6,21.6 C33.7,21.7 33.8,21.8 33.7,22.1 C33.7,22.4 33.9,22.4 34,22.5 C34.1,22.6 34.3,22.8 34.3,23.1 C34.3,23.1 34.5,22.9 34.2,22.5 C33.9,22.1 34,22 34,22 C34,22 34,22.3 34.3,22.3 C34.3,22.3 34.4,22.2 34,21.7 C33.7,21.3 33.4,20.9 33.4,20.4 C33.4,20.4 33.4,20.6 33.7,20.7 C33.7,20.7 33.6,20.5 33.6,20.3 C33.6,20.1 33.5,19.6 32.6,19.4 C32.3,19.4 31.2,19.6 31,19.7 C30.8,19.9 30.5,20.2 30.5,20.6 C30.5,20.7 30.7,21.1 30.7,21.1 L30.7,21.2 L30.7,21.3 C30.7,21.4 30.6,21.5 30.7,21.5 L30.7,21.6 C30.7,21.7 30.5,22.3 30.5,22.4 C30.5,22.5 30.5,22.6 30.7,22.6 L30.9,22.6 L30.9,22.8 C31,22.7 31.1,22.7 31.1,22.7 L31.4,22.7 C31.4,22.7 31.2,22.7 31.1,22.8 L30.9,22.8 L30.9,22.9 C30.9,22.9 31.2,22.9 31.3,22.8 L31.1,23 C31,23 30.9,23 30.9,22.9 C30.9,22.9 31,22.9 31,23.1 C31,23.3 30.9,23.5 31.2,23.5 L31.6,23.5 L31.9,23.5 C32.1,23.9 32.8,23.6 32.9,23.3" id="Shape"></path>
            <path d="M44.9,48.2 L40.4,48.2 L40.4,45.5 L35.9,45.5 L35.9,48.2 L31.4,48.2 L31.4,45.5 L26.9,45.5 L26.9,48.2 L22.4,48.2 L22.4,45.5 L17.9,45.5 L17.9,48.2 L13.4,48.2 L13.4,45.5 L8.9,45.5 L8.9,48.2 L4.5,48.2 L4.5,45.5 L0,45.5 C0.1,47.4 0.3,49.2 0.8,50.9 C2.6,51.7 4.6,52.1 6.7,52.1 C10.1,52.1 13.3,51 15.7,49.1 C18.1,51 21.3,52.1 24.7,52.1 L24.7,52.1 C28.1,52.1 31.3,51 33.7,49.1 C36.1,51 39.3,52.1 42.7,52.1 C44.8,52.1 46.8,51.7 48.6,50.9 C49.1,49.2 49.3,47.3 49.4,45.5 L45,45.5 L45,48.2 L44.9,48.2 Z" id="Shape"></path>
            <path d="M15.2,25.7 C14.9,25.6 15,25.8 15.1,25.9 C15.6,26.4 16.5,27.5 16.5,28.5 C16.5,28.5 17.1,28.7 17.2,27.8 C17.3,27.3 17.1,26.3 17,26.1 C17,26.1 17.1,26.2 17.3,26.7 C17.6,27.4 17.5,27.7 17.6,28.3 C17.6,28.2 17.7,28 17.7,27.8 L17.7,27.3 C17.7,26.8 17.7,26.4 17.6,26.2 C17.5,26 17.4,25.9 17.4,25.8 C17.4,25.7 16.7,24.9 16.7,24.9 C16.7,25.1 16.6,25.2 16.5,25.3 C16.3,25.7 15.8,25.8 15.2,25.7" id="Shape"></path>
            <path d="M32,25.5 C32.2,25.6 32.5,25.6 32.8,25.6 C33.1,25.6 33.4,25.5 33.6,25.4 C33.7,25.3 33.9,25.1 34,25 C34.1,24.9 34.1,24.8 34.2,24.8 L34.2,24.7 C34.2,24.6 34.2,24.4 33.9,24.1 C33.8,24 33.6,23.7 33.6,23.7 L33.6,23.7 C33.5,23.7 33.3,23.6 33.3,23.6 C33.1,23.7 33,23.5 33,23.5 C32.9,23.5 32.8,23.5 32.7,23.3 C32.8,23.6 32.2,23.8 32,24.1 C31.8,24.3 31.7,24 31.6,24.2 C31.6,24.4 31.7,24.4 31.7,24.5 L31.7,24.9 C31.8,25 31.7,25.4 32,25.5" id="Shape"></path>
            <path d="M35.9,44.1 C35.9,43.9 35.8,43.9 35.6,44 C35.5,44.1 35.2,43.9 35,43.9 L34.7,43.9 L34.4,43.9 C34,43.8 34,44.3 34,44.3 C34,44.4 34,44.4 34.1,44.4 C34.2,44.5 34.3,44.5 34.3,44.5 C34.4,44.5 34.3,44.6 34.4,44.6 C34.4,44.6 34.9,45 35.2,44.7 C35.3,44.6 34.9,44.3 34.9,44.3 C34.9,44.3 35.1,44.4 35.2,44.5 C35.3,44.6 35.5,44.7 35.6,44.6 C35.7,44.4 35.3,44.2 35.3,44.2 C35.3,44.2 35.5,44.3 35.6,44.4 C35.7,44.6 35.8,44.6 35.9,44.4 C35.8,44.2 35.6,44.1 35.6,44.1 C35.6,44.1 35.7,44.1 35.8,44.2 C35.9,44.3 36,44.3 36,44.1 C36,44.2 35.9,44.1 35.9,44.1" id="Shape"></path>
            <polygon id="Shape" points="63.9 44.6 60.4 39.6 60.4 44.6 58.4 44.6 58.4 34 60.4 34 60.4 39 63.7 34.1 66 34.1 62.4 39.2 66.2 44.6"></polygon>
            <path d="M71.8,44.8 C68.5,44.8 66.2,42.5 66.2,39.3 C66.2,36 68.5,33.8 71.8,33.8 C75.1,33.8 77.4,36 77.4,39.3 C77.4,42.5 75.1,44.8 71.8,44.8 L71.8,44.8 Z M71.8,35.6 C69.8,35.6 68.3,37.2 68.3,39.3 C68.3,41.4 69.8,43 71.8,43 C73.8,43 75.3,41.4 75.3,39.3 C75.3,37.2 73.8,35.6 71.8,35.6 L71.8,35.6 Z" id="Shape"></path>
            <path d="M88.3,44.6 L88.3,36.9 C88.2,37.4 88.2,37.5 87.9,38.4 L85.5,44.6 L83.7,44.6 L81.5,38.5 C81.3,37.9 81.3,37.7 81.1,36.8 L81.1,44.6 L79.3,44.6 L79.3,34 L81.7,34 L84.5,41.5 C84.6,41.8 84.7,41.9 84.7,42.3 C84.8,41.8 84.8,41.7 84.9,41.5 L87.8,34 L90.2,34 L90.2,44.6 L88.3,44.6 L88.3,44.6 Z" id="Shape"></path>
            <path d="M101.9,44.6 L101.9,36.9 C101.8,37.4 101.8,37.5 101.5,38.4 L99.1,44.6 L97.3,44.6 L95,38.5 C94.8,37.9 94.8,37.7 94.6,36.8 L94.6,44.6 L92.8,44.6 L92.8,34 L95.2,34 L98,41.5 C98.1,41.8 98.2,41.9 98.2,42.3 C98.3,41.8 98.3,41.7 98.4,41.5 L101.3,34 L103.7,34 L103.7,44.6 L101.9,44.6 L101.9,44.6 Z" id="Shape"></path>
            <path d="M113.6,44 C112.8,44.5 111.9,44.8 110.6,44.8 C109.3,44.8 108.4,44.6 107.6,44 C106.5,43.2 106.2,42.4 106.2,40.4 L106.2,34 L108.2,34 L108.2,40.5 C108.2,42.1 109,42.9 110.7,42.9 C112.2,42.9 113.1,42.1 113.1,40.5 L113.1,34 L115.1,34 L115.1,40.4 C115.1,42.4 114.7,43.3 113.6,44 L113.6,44 Z" id="Shape"></path>
            <path d="M124.5,44.7 L120,37.9 C120,37.9 119.9,37.7 119.8,37.5 C119.7,37.4 119.7,37.3 119.7,37.3 C119.6,37.2 119.6,37.1 119.6,36.9 L119.6,44.6 L117.7,44.6 L117.7,34 L120,34 L124.4,40.9 C124.4,40.9 124.5,41 124.5,41.1 C124.5,41.2 124.6,41.3 124.6,41.3 L124.7,41.6 L124.8,41.8 L124.8,34 L126.7,34 L126.7,44.7 L124.5,44.7 L124.5,44.7 Z" id="Shape"></path>
            <polygon id="Shape" points="129.2 44.6 129.2 34 135.6 34 135.6 35.7 131.2 35.7 131.2 38.3 134.8 38.3 134.8 40 131.2 40 131.2 42.8 135.8 42.8 135.8 44.5 129.2 44.5"></polygon>
        </g>
    </g>
</svg>