<?xml version="1.0" encoding="UTF-8" standalone="no"?>
<svg width="1160px" height="160px" viewBox="0 0 1160 160" version="1.1" xmlns="http://www.w3.org/2000/svg" xmlns:xlink="http://www.w3.org/1999/xlink">
    <defs>
        <linearGradient x1="0.0134018383%" y1="50.2376635%" x2="100.037931%" y2="50.2376635%" id="linearGradient-1">
            <stop stop-color="#FDEB03" offset="0%"></stop>
            <stop stop-color="#FFFFFF" offset="0%"></stop>
            <stop stop-color="#FDEB03" offset="0%"></stop>
            <stop stop-color="#CC2027" offset="49.45%"></stop>
            <stop stop-color="#C92229" offset="55.52%"></stop>
            <stop stop-color="#C0242F" offset="62.29%"></stop>
            <stop stop-color="#B12939" offset="69.4%"></stop>
            <stop stop-color="#9D2E48" offset="76.75%"></stop>
            <stop stop-color="#833258" offset="84.28%"></stop>
            <stop stop-color="#60366A" offset="91.96%"></stop>
            <stop stop-color="#2C3880" offset="99.63%"></stop>
            <stop stop-color="#293881" offset="100%"></stop>
        </linearGradient>
    </defs>
    <g id="Page-1" stroke="none" stroke-width="1" fill="none" fill-rule="evenodd">
        <g id="footer-skyline">
            <g id="Group" transform="translate(866.000000, 71.000000)" fill="#FFFFFF">
                <polygon id="Shape" points="283.4 61.8 283.4 58 10.2 58 10.2 61.8"></polygon>
                <rect id="Rectangle-path" x="249.3" y="66.1" width="2.4" height="15.9"></rect>
                <rect id="Rectangle-path" x="233.4" y="66.1" width="2.4" height="15.9"></rect>
                <rect id="Rectangle-path" x="217.4" y="66.1" width="2.4" height="15.9"></rect>
                <rect id="Rectangle-path" x="201.5" y="66.1" width="2.4" height="15.9"></rect>
                <rect id="Rectangle-path" x="185.5" y="66.1" width="2.4" height="15.9"></rect>
                <rect id="Rectangle-path" x="74.2" y="66.1" width="2.4" height="2.5"></rect>
                <rect id="Rectangle-path" x="42.4" y="66.1" width="2.4" height="2.7"></rect>
                <polygon id="Shape" points="44.8 49.8 44.8 36.2 58.1 36.2 58.1 49.8 60.5 49.8 60.5 36.2 74 36.2 74 49.8 76.4 49.8 76.4 36.2 89.9 36.2 89.9 49.8 92.3 49.8 92.3 36.2 105.9 36.2 105.9 49.8 108.3 49.8 108.3 36.2 121.8 36.2 121.8 49.8 124.2 49.8 124.2 36.2 137.7 36.2 137.7 49.8 140.1 49.8 140.1 36.2 153.6 36.2 153.6 49.8 156 49.8 156 36.2 169.5 36.2 169.5 49.8 172 49.8 172 36.2 185.5 36.2 185.5 49.8 187.9 49.8 187.9 36.2 201.4 36.2 201.4 49.8 203.8 49.8 203.8 36.2 217.3 36.2 217.3 49.8 219.7 49.8 219.7 36.2 233.2 36.2 233.2 49.8 235.7 49.8 235.7 36.2 249.2 36.2 249.2 49.8 251.7 49.8 251.7 20.3 249.2 20.3 249.2 34.6 235.7 34.6 235.7 20.3 233.2 20.3 233.2 34.6 219.7 34.6 219.7 20.3 217.3 20.3 217.3 34.6 203.8 34.6 203.8 20.3 201.4 20.3 201.4 34.6 187.9 34.6 187.9 20.3 185.5 20.3 185.5 34.6 172 34.6 172 20.3 169.5 20.3 169.5 34.6 156 34.6 156 20.3 153.6 20.3 153.6 34.6 140.1 34.6 140.1 20.3 137.7 20.3 137.7 34.6 124.2 34.6 124.2 20.3 121.8 20.3 121.8 34.6 108.3 34.6 108.3 20.3 105.9 20.3 105.9 34.6 92.3 34.6 92.3 20.3 89.9 20.3 89.9 34.6 76.4 34.6 76.4 20.3 74 20.3 74 34.6 60.5 34.6 60.5 20.3 58.1 20.3 58.1 34.6 44.8 34.6 44.8 20.3 44.6 20.3 42.4 20.3 42.4 20.3 42.4 49.8"></polygon>
                <rect id="Rectangle-path" x="10.2" y="53.1" width="272.9" height="2.4"></rect>
                <g transform="translate(19.000000, 66.000000)" id="Rectangle-path">
                    <rect x="31.6" y="0.1" width="98.2" height="2.4"></rect>
                    <rect x="23.8" y="5" width="98.2" height="2.4"></rect>
                    <rect x="15.9" y="10" width="98.2" height="2.4"></rect>
                    <rect x="8.1" y="14.9" width="98.2" height="2.4"></rect>
                    <rect x="0.3" y="19.9" width="98.2" height="2.4"></rect>
                </g>
                <rect id="Rectangle-path" x="169.6" y="66.1" width="2.4" height="15.9"></rect>
                <rect id="Rectangle-path" x="153.6" y="66.1" width="2.4" height="15.9"></rect>
                <rect id="Rectangle-path" x="137.7" y="76" width="2.4" height="6"></rect>
                <g id="Shape">
                    <polygon points="1.3 7.7 5.3 16 280.4 16 287.3 7.7"></polygon>
                    <polygon points="289.3 5.3 293.4 0.3 0.2 0.3 0.2 5.2 0.2 5.3"></polygon>
                </g>
            </g>
            <g id="Group" transform="translate(0.000000, 67.000000)" fill="#FFFFFF">
                <polygon id="Shape" points="138.5 40.9 165.8 49.2 187.4 49.2 187.4 55.8 190.4 56.7 190.4 40.9"></polygon>
                <g>
                    <rect id="Rectangle-path" x="103.4" y="74.4" width="1.2" height="11.6"></rect>
                    <rect id="Rectangle-path" x="110.6" y="74.4" width="1.2" height="11.6"></rect>
                    <rect id="Rectangle-path" x="125" y="74.4" width="1.2" height="11.6"></rect>
                    <rect id="Rectangle-path" x="132.2" y="74.4" width="1.2" height="11.6"></rect>
                    <rect id="Rectangle-path" x="117.8" y="74.4" width="1.2" height="11.6"></rect>
                    <polygon id="Shape" points="10 86 17.5 86 17.5 76.9 72.4 76.9 72.4 86 83.3 86 83.3 71.9 139.5 71.9 139.5 86 150.4 86 150.4 63.7 82.4 63.7 82.4 42.6 17.5 42.6 17.5 18.3 10 16 10 42.6 0 42.6 0 51 10 51 17.5 51 73.8 51 73.8 63.3 68.1 63.3 68.1 53.3 66.9 53.3 66.9 63.3 61 63.3 61 53.3 59.8 53.3 59.8 63.3 53.9 63.3 53.9 53.3 52.6 53.3 52.6 63.3 46.8 63.3 46.8 53.3 45.5 53.3 45.5 63.3 39.6 63.3 39.6 53.3 38.4 53.3 38.4 63.3 32.5 63.3 32.5 53.3 31.3 53.3 31.3 63.3 25.4 63.3 25.4 53.3 24.2 53.3 24.2 63.3 18.3 63.3 18.3 53.3 17.5 53.3 17 53.3 17 63.3 11.2 63.3 11.2 53.3 10 53.3 9.9 53.3 9.9 63.3 4 63.3 4 53.3 2.8 53.3 2.8 63.3 0 63.3 0 76.9 10 76.9"></polygon>
                    <polygon id="Shape" points="104.3 42.9 113 45.6 198.5 71.6 206 73.9 245.5 86 281.6 86 276.9 84.6 206 62.9 198.5 60.7 190.4 58.2 187.4 57.3 158.6 48.5 131.3 40.2 113 34.6 104.3 31.9 18.8 5.9 0 0.1 0 0.4 0 11.1 18.8 16.9"></polygon>
                    <rect id="Rectangle-path" x="89.1" y="74.4" width="1.2" height="11.6"></rect>
                    <rect id="Rectangle-path" x="96.2" y="74.4" width="1.2" height="11.6"></rect>
                </g>
            </g>
            <g id="Group" transform="translate(304.000000, 53.000000)" fill="#FFFFFF">
                <polygon id="Shape" points="6.4 62.4 6.4 100 48.2 100 48.2 99.9 48.2 62.4"></polygon>
                <g transform="translate(0.000000, 10.000000)" id="Shape">
                    <path d="M132.7,60.4 L126.2,60.4 L126.2,52.9 L126.2,51.3 L126.2,51.3 L126.2,51.3 L127.3,52.9 L132.7,60.4 L132.7,60.4 Z M137,66.4 L137,75.2 L126.3,75.2 L126.3,62.7 L134.3,62.7 L137,66.4 L137,66.4 Z M124.2,60.4 L113.5,60.4 L113.5,60.4 L113.5,52.9 L113.5,51.3 L113.5,47.9 L113.5,47.9 L123.9,47.9 L124.2,48.3 L124.2,51.3 L124.2,52.9 L124.2,60.4 L124.2,60.4 Z M124.2,75.2 L113.5,75.2 L113.5,75.2 L113.5,62.7 L113.5,62.7 L124.2,62.7 L124.2,75.2 L124.2,75.2 Z M139,69.4 L143.1,75.2 L139,75.2 L139,69.4 L139,69.4 Z M128.6,51.3 L200.9,51.3 C194,45.9 187.9,39.1 183.3,31.1 L78.2,31.1 L18.3,31.1 C13.7,39 7.7,45.8 0.7,51.3 L48.1,51.3 L48.1,51.3 L48.1,51.3 L48.7,51.3 L113,33.2 L113.5,33.1 L113.5,33.2 L113.5,33.2 L122.3,45.7 L113.5,45.7 L113.5,45.7 L113.5,34.5 L53.7,51.3 L49.7,52.4 L50.4,52.9 L104.2,89.9 L113.4,89.9 L113.4,77.4 L113.4,77.4 L124.1,77.4 L124.1,90 L126.2,90 L126.2,77.5 L137,77.5 L137,90 L139.1,90 L139.1,77.5 L144.8,77.5 L149.8,84.6 L149.8,90 L151.8,90 L151.8,87.5 L153.6,90 L156,90 L195.4,90 L195.4,52.4 L129.9,52.4 L128.6,51.3 L128.6,51.3 Z"></path>
                    <path d="M99.6,4.6 C100.9,4.6 102,3.6 102,2.3 C102,1 100.9,0 99.6,0 C98.3,0 97.2,1 97.2,2.3 C97.3,3.5 98.3,4.6 99.6,4.6"></path>
                </g>
                <polygon id="Shape" points="99.6 0.2 98.5 8.5 100.8 8.5"></polygon>
                <g transform="translate(29.000000, 15.000000)" id="Shape">
                    <path d="M70.6,0.9 C66.9,0.9 63.9,3.4 63.9,6.6 C63.9,8.2 64.7,9.7 66,10.7 L66,25.3 L68.2,25.3 L68.2,15.6 C68.2,14.3 69.3,13.2 70.6,13.2 C71.9,13.2 73,14.3 73,15.6 L73,25.3 L75.2,25.3 L75.2,10.6 C76.5,9.6 77.3,8.1 77.3,6.5 C77.4,3.4 74.4,0.9 70.6,0.9"></path>
                    <path d="M3.6,20 C1.7,20 0.2,21.5 0.2,23.3 L0.2,25.2 L6.9,25.2 L6.9,23.3 C7,21.5 5.5,20 3.6,20"></path>
                    <path d="M38.1,20 C36.2,20 34.7,21.5 34.7,23.3 L34.7,25.2 L41.4,25.2 L41.4,23.3 C41.5,21.5 40,20 38.1,20"></path>
                    <path d="M108.7,23.3 C108.7,21.5 107.2,20 105.3,20 C103.4,20 101.9,21.5 101.9,23.3 L101.9,25.2 L108.6,25.2 L108.6,23.3 L108.7,23.3 Z"></path>
                    <path d="M143.2,23.3 C143.2,21.5 141.7,20 139.8,20 C137.9,20 136.4,21.5 136.4,23.3 L136.4,25.2 L143.1,25.2 L143.1,23.3 L143.2,23.3 Z"></path>
                </g>
            </g>
            <path d="M582.4,118.6 L595.7,118.6 L595.7,134.4 L582.4,134.4 L582.4,118.6 L582.4,118.6 Z M598.3,118.6 L611.6,118.6 L611.6,134.4 L598.3,134.4 L598.3,118.6 L598.3,118.6 Z M614.3,118.6 L627.6,118.6 L627.6,134.4 L614.3,134.4 L614.3,118.6 L614.3,118.6 Z M582.4,100 L595.7,100 L595.7,115.8 L582.4,115.8 L582.4,100 L582.4,100 Z M598.3,100 L611.6,100 L611.6,115.8 L598.3,115.8 L598.3,100 L598.3,100 Z M614.3,100 L627.6,100 L627.6,115.8 L614.3,115.8 L614.3,100 L614.3,100 Z M582.4,81.3 L595.7,81.3 L595.7,97.1 L582.4,97.1 L582.4,81.3 L582.4,81.3 Z M598.3,81.3 L611.6,81.3 L611.6,97.1 L598.3,97.1 L598.3,81.3 L598.3,81.3 Z M614.3,81.3 L627.6,81.3 L627.6,97.1 L614.3,97.1 L614.3,81.3 L614.3,81.3 Z M627.6,62.7 L627.6,78.5 L614.3,78.5 L614.3,62.7 L611.7,62.7 L611.7,78.5 L598.4,78.5 L598.4,62.7 L595.8,62.7 L595.8,78.5 L582.5,78.5 L582.5,62.7 L537.7,62.7 L537.7,153.1 L582.5,153.1 L582.5,137.3 L595.8,137.3 L595.8,153.1 L598.4,153.1 L598.4,137.3 L611.7,137.3 L611.7,153.1 L614.3,153.1 L614.3,137.3 L627.6,137.3 L627.6,153.1 L718.3,153.1 L718.3,62.7 L627.6,62.7 L627.6,62.7 Z" id="Shape" fill="#FFFFFF"></path>
            <rect id="Rectangle-path" fill="url(#linearGradient-1)" x="537.6" y="32.8" width="180.6" height="22.6"></rect>
            <g id="Group" transform="translate(774.000000, 0.000000)" fill="#FFFFFF">
                <rect id="Rectangle-path" x="10.1" y="136.7" width="7.8" height="15.7"></rect>
                <rect id="Rectangle-path" x="29.1" y="136.7" width="7.8" height="15.7"></rect>
                <path d="M46.8,129.5 L45.2,129.5 L45.2,95.8 L46.8,95.8 L46.8,91 L45.2,91 L45.2,57.2 L46.8,57.2 L46.8,52.4 L45.2,52.4 L45.2,25.1 L46.8,25.1 L46.8,20.3 L45.2,20.3 L45.2,0 L1.6,0 L1.6,20.3 L-1.13686838e-13,20.3 L-1.13686838e-13,25.1 L1.6,25.1 L1.6,52.4 L-1.13686838e-13,52.4 L-1.13686838e-13,57.2 L1.6,57.2 L1.6,90.9 L-1.13686838e-13,90.9 L-1.13686838e-13,95.7 L1.6,95.7 L1.6,129.4 L-1.13686838e-13,129.4 L-1.13686838e-13,134.2 L1.6,134.2 L1.6,152.3 L5,152.3 L5,134.2 L9.5,134.2 L10,134.2 L17.8,134.2 L19.1,134.2 L19.1,136.6 L19.1,152.3 L19.1,152.9 L21.7,152.9 L21.7,152.3 L25.2,152.3 L25.2,152.9 L27.8,152.9 L27.8,152.3 L27.8,134.2 L28.5,134.2 L29.1,134.2 L36.9,134.2 L39.3,134.2 L41.9,134.2 L41.9,152.3 L45.3,152.3 L45.3,134.2 L46.9,134.2 L46.8,129.5 L46.8,129.5 Z M21.7,6.5 L25.2,6.5 L25.2,20.3 L21.7,20.3 L21.7,6.5 L21.7,6.5 Z M21.7,25.1 L25.2,25.1 L25.2,27.5 L21.7,27.5 L21.7,25.1 L21.7,25.1 Z M21.7,57.2 L25.2,57.2 L25.2,59.6 L21.7,59.6 L21.7,57.2 L21.7,57.2 Z M5.1,6.5 L19.1,6.5 L19.1,20.3 L5.1,20.3 L5.1,6.5 L5.1,6.5 Z M5.1,25.1 L6.9,25.1 L10.1,25.1 L19.1,25.1 L19.1,27.5 L19.1,52.4 L17.8,52.4 L17.8,27.5 L10,27.5 L10,52.4 L5,52.4 L5,25.1 L5.1,25.1 Z M5.1,57.2 L6.9,57.2 L10.1,57.2 L19.1,57.2 L19.1,59.6 L19.1,80.1 C18.7,80.2 18.2,80.4 17.8,80.5 L17.8,59.5 L10,59.5 L10,86.8 C9.2,88 8.6,89.4 8.2,90.9 L5,90.9 L5,57.2 L5.1,57.2 Z M25.2,136.7 L21.7,136.7 L21.7,134.3 L25.2,134.3 L25.2,136.7 L25.2,136.7 Z M41.9,129.5 L36.9,129.5 L36.9,105.7 C34.9,108.2 32.2,110.2 29.1,111.2 L29.1,129.5 L27.8,129.5 L27.8,111.6 C26.4,112 25,112.2 23.5,112.2 C22,112.2 20.5,112 19.1,111.6 L19.1,129.5 L17.8,129.5 L17.8,111.2 C14.7,110.1 12,108.2 10,105.6 L10,129.5 L5,129.5 L5,95.8 L6.4,95.8 L6.4,95.8 L7.5,95.8 C7.7,104.3 14.7,111.1 23.3,111.1 C31.9,111.1 38.9,104.3 39.1,95.8 L40.2,95.8 L40.2,95.8 L40.4,95.8 L41.6,95.8 L41.6,129.5 L41.9,129.5 Z M41.9,90.9 L38.8,90.9 C38.4,89.4 37.7,88 36.9,86.8 L36.9,59.6 L29.1,59.6 L29.1,80.5 C28.7,80.3 28.2,80.2 27.8,80.1 L27.8,59.6 L27.8,57.2 L36.8,57.2 L40.6,57.2 L41.8,57.2 L41.8,90.9 L41.9,90.9 Z M41.9,52.4 L36.9,52.4 L36.9,27.5 L29.1,27.5 L29.1,52.4 L27.8,52.4 L27.8,27.5 L27.8,25.1 L36.8,25.1 L40.6,25.1 L41.8,25.1 L41.8,52.4 L41.9,52.4 Z M41.9,20.3 L27.9,20.3 L27.9,6.5 L41.9,6.5 L41.9,20.3 L41.9,20.3 Z" id="Shape"></path>
            </g>
        </g>
    </g>
</svg>